<?xml version="1.0" standalone="no"?>
<!DOCTYPE svg PUBLIC "-//W3C//DTD SVG 1.1//EN" "http://www.w3.org/Graphics/SVG/1.1/DTD/svg11.dtd" >
<svg xmlns="http://www.w3.org/2000/svg">
<metadata>Generated by IcoMoon</metadata>
<defs>
<font id="vwfs-iconfont" horiz-adv-x="1024">
<font-face units-per-em="1024" ascent="960" descent="-64" />
<missing-glyph horiz-adv-x="1024" />
<glyph unicode="&#x20;" horiz-adv-x="512" d="" />
<glyph unicode="&#xe900;" glyph-name="calendar-finger" d="M227.84 967.111h28.444v-142.222h-28.444v142.222zM569.173 967.111h28.444v-142.222h-28.444v142.222zM313.173 910.222h199.111v-28.444h-199.111v28.444zM857.316 463.36c-13.082 12.445-30.82 20.101-50.347 20.101s-37.265-7.656-50.377-20.13l-130.814-130.531-85.333 85.333c-9.146 8.641-21.517 13.952-35.129 13.952s-25.983-5.312-35.153-13.975c-8.942-8.978-14.486-21.395-14.486-35.106s5.544-26.128 14.512-35.13l125.723-125.723-20.196-20.196c-12.907-12.875-20.892-30.678-20.892-50.347s7.985-37.472 20.89-50.345l126.295-126.295 7.68 1.707c2.56 0 254.009 62.009 312.889 312.889l1.707 7.68zM711.111 4.835l-113.778 113.778c-7.71 7.719-12.478 18.378-12.478 30.151s4.768 22.432 12.478 30.152l20.195 20.195 60.587-60.587 20.196 20.196-206.507 206.507c-3.855 3.86-6.239 9.189-6.239 15.076s2.384 11.216 6.239 15.076c3.918 3.723 9.229 6.014 15.075 6.014s11.157-2.29 15.085-6.023l145.911-145.911 20.196 20.196-40.107 40.107 40.676 40.676 40.107-40.391 20.196 20.196-40.107 40.391 39.822 39.822 38.4-40.676 20.196 20.196-39.253 41.529 9.956 9.956c7.837 7.447 18.459 12.028 30.151 12.028s22.314-4.581 30.17-12.046l155.288-155.289c-52.622-203.093-242.631-269.369-282.453-281.316zM711.111 540.444v28.444h-113.778v85.333h-28.444v-85.333h-142.222v85.333h-28.444v-85.333h-142.222v85.333h-28.444v-85.333h-113.778v-28.444h113.778v-85.333h-113.778v-28.444h113.778v-85.333h28.444v85.333h137.671c5.428 12.223 12.604 22.679 21.349 31.59 3.422 3.275 7.135 6.356 11.057 9.163l0.305 73.025h142.222v-85.333l28.444-28.444h28.444l28.444 28.444h-56.604v85.333zM398.222 455.111h-142.222v85.333h142.222zM71.396 256c-0.084-0.001-0.184-0.001-0.284-0.001-23.564 0-42.667 19.103-42.667 42.667 0 0 0 0.001 0 0.001v540.444c0 0 0 0.001 0 0.001 0 23.564 19.103 42.667 42.667 42.667 0.1 0 0.2 0 0.3-0.001h99.256v28.444h-99.271c-0.084 0-0.184 0.001-0.284 0.001-39.274 0-71.111-31.838-71.111-71.111 0 0 0 0 0-0.001v-540.444c0 0 0 0 0-0.001 0-39.274 31.838-71.111 71.111-71.111 0.1 0 0.2 0 0.3 0.001h424.091l-28.444 28.444zM796.444 839.111v-71.111h-768v-28.444h768v-199.111c10.287-0.407 20.031-1.939 29.36-4.479l-0.915 303.146c0 0 0 0 0 0.001 0 39.174-31.676 70.949-70.811 71.11h-99.855v-28.444h99.556c23.564 0 42.667-19.103 42.667-42.667z" />
<glyph unicode="&#xe901;" glyph-name="calendar" d="M227.556 967.111h28.444v-199.111h-28.444v199.111zM113.778 227.555v-28.444h85.333v-113.778h28.444v113.778h170.667v-113.778h28.444v113.778h170.667v-113.778h28.444v113.778h170.667v-113.778h28.444v113.778h85.333v28.444h-85.333v142.222h85.333v28.444h-85.333v113.778h-28.444v-113.778h-170.667v113.778h-28.444v-113.778h-170.667v113.778h-28.444v-113.778h-170.667v113.778h-28.444v-113.778h-85.333v-28.444h85.333v-142.222zM796.444 369.778v-142.222h-170.667v142.222zM597.333 369.778v-142.222h-170.667v142.222zM227.556 369.778h170.667v-142.222h-170.667zM768 967.111h28.444v-199.111h-28.444v199.111zM952.889 881.778h-99.556v-28.444h99.556c23.564 0 42.667-19.103 42.667-42.667v-156.444h-967.111v-28.444h967.111v-611.556c0-23.564-19.103-42.667-42.667-42.667h-881.778c-23.564 0-42.667 19.103-42.667 42.667v796.444c0 23.564 19.103 42.667 42.667 42.667h99.556v28.444h-99.556c-39.274 0-71.111-31.838-71.111-71.111v-796.444c0-39.274 31.838-71.111 71.111-71.111h881.778c39.274 0 71.111 31.838 71.111 71.111v796.444c0 39.274-31.838 71.111-71.111 71.111zM312.889 881.778h398.222v-28.444h-398.222v28.444z" />
<glyph unicode="&#xe902;" glyph-name="house" d="M512 871.253l411.876-387.698h-98.987v-455.111h-199.111v227.556c0 31.419-25.47 56.889-56.889 56.889h-113.778c-31.419 0-56.889-25.47-56.889-56.889v-227.556h-199.111v455.111h-98.987l411.876 387.698zM512 910.222l-483.556-455.111h142.222v-455.111h256v256c0 15.709 12.735 28.444 28.444 28.444h113.778c15.709 0 28.444-12.735 28.444-28.444v-256h256v455.111h142.222l-483.556 455.111z" />
<glyph unicode="&#xe903;" glyph-name="branch" d="M312.889 967.111v-284.444h-284.444v-739.556h967.111v1024zM170.667-28.445v284.444h142.222v-284.444zM967.111-28.445h-625.778v312.889h-199.111v-312.889h-85.333v682.667h284.444v284.444h625.778zM625.778 853.333h-199.111v-199.111h199.111zM597.333 682.667h-142.222v142.222h142.222zM625.778 568.889h-199.111v-199.111h199.111zM597.333 398.222h-142.222v142.222h142.222zM625.778 284.444h-199.111v-199.111h199.111zM597.333 113.778h-142.222v142.222h142.222zM881.778 853.333h-199.111v-199.111h199.111zM853.333 682.667h-142.222v142.222h142.222zM881.778 568.889h-199.111v-199.111h199.111zM853.333 398.222h-142.222v142.222h142.222zM881.778 284.444h-199.111v-199.111h199.111zM853.333 113.778h-142.222v142.222h142.222zM142.222 369.778h199.111v199.111h-199.111zM170.667 540.444h142.222v-142.222h-142.222z" />
<glyph unicode="&#xe904;" glyph-name="newsletter" d="M573.44 448c-17.753-6.673-38.272-10.536-59.693-10.536-0.714 0-1.427 0.004-2.139 0.013-85.225-0.001-142.114 50.061-142.114 142.221-0.054 1.483-0.085 3.225-0.085 4.975 0 79.961 64.821 144.782 144.782 144.782 2.231 0 4.45-0.050 6.657-0.15 2.088 0.178 4.89 0.273 7.715 0.273 68.179 0 123.449-55.27 123.449-123.449 0-1.392-0.023-2.779-0.069-4.16 0.005-64.652-36.688-100.208-72.528-100.208-1.42-0.17-3.064-0.267-4.731-0.267-15.951 0-29.83 8.871-36.972 21.949l-0.11 0.22c-12.095-10.504-27.843-17.087-45.114-17.633-29.722 0.31-53.605 24.385-53.605 54.039 0 2.005 0.109 3.984 0.322 5.933-0.021 44.417 25.863 92.204 71.090 92.204 14.95-0.296 28.439-6.313 38.417-15.945l-0.017 0.016 7.964 11.947h26.738l-17.351-91.022c-3.698-20.48 0-33.28 15.929-33.28s40.391 22.471 40.391 71.964c0.179 2.168 0.281 4.694 0.281 7.243 0 51.684-41.898 93.582-93.582 93.582-3.104 0-6.172-0.151-9.198-0.446-1.305 0.12-3.282 0.171-5.27 0.171-62.838 0-113.778-50.94-113.778-113.778 0-2.652 0.091-5.282 0.269-7.888-0.019-71.612 38.381-115.986 110.63-115.986 19.721 0.39 38.553 3.585 56.308 9.203zM540.444 616.96c-6.521 5.487-15.012 8.821-24.281 8.821-0.164 0-0.327-0.001-0.49-0.003-24.437 0-39.513-27.022-39.513-58.311 0-17.351 7.396-28.444 25.031-28.444 10.682 0.314 20.495 3.781 28.61 9.497zM881.778 671.289v182.044h-235.804l-133.973 103.253-133.973-103.253h-235.804v-182.044l-142.222-109.511v-618.667h1024v618.667zM995.556 547.555v0l-113.778-113.778v201.671zM316.871 217.6l-288.427-230.684v519.111zM512 337.351l457.102-365.796h-914.204zM707.129 217.6l288.427 288.427v-519.111zM512 920.747l87.324-67.413h-174.649zM853.333 824.889v-420.693l-168.676-168.676-172.658 138.24-172.658-138.24-168.676 168.676v420.693zM142.222 432.64l-113.778 113.778 113.778 87.893z" />
<glyph unicode="&#xe905;" glyph-name="email" d="M0 796.444v-682.667h1024v682.667zM764.302 393.955l-20.196-20.196 231.538-231.538h-926.72l231.822 231.822-20.196 20.196-232.107-232.107v585.387l483.556-497.778 483.556 497.209v-584.249zM48.071 768h928.427l-464.498-477.298z" />
<glyph unicode="&#xe906;" glyph-name="support" d="M853.333 568.889v205.938c-4.267 5.404-77.084 135.396-341.333 135.396s-336.498-129.991-339.342-135.396l-1.991-3.129v-202.809c-48.089-5.333-85.173-45.671-85.333-94.703v-149.634c-0.002-0.254-0.004-0.553-0.004-0.853 0-53.098 43.044-96.142 96.142-96.142 0.001 0 0.003 0 0.004 0h7.395c52.754 0.322 95.413 43.081 95.573 95.842v149.633c0.002 0.248 0.004 0.541 0.004 0.834 0 49.178-37.143 89.68-84.906 94.985l-0.431 195.168c11.947 17.92 87.040 117.76 312.889 117.76s301.511-100.124 312.889-117.76v-195.129c-48.089-5.333-85.173-45.671-85.333-94.703v-149.634c-0.013-0.586-0.020-1.277-0.020-1.97 0-49.184 37.152-89.69 84.923-94.987-0.749-27.531-11.32-52.348-28.13-71.57-28.017-26.193-65.941-42.362-107.642-42.362-2.117 0-4.225 0.042-6.322 0.124l0.302 56.879h-341.333v-170.667h341.333v85.333c1.722-0.058 3.746-0.091 5.779-0.091 50.262 0 95.826 20.118 129.077 52.741 21.089 23.847 34.435 55.029 35.802 89.294 48.098 5.611 85.182 45.949 85.342 94.981v150.772c0.002 0.248 0.004 0.541 0.004 0.834 0 49.178-37.143 89.68-84.906 94.985zM256 473.031v-149.618c0 0 0 0 0-0.001 0-37.131-30.020-67.251-67.114-67.413h-7.411c0 0 0 0-0.001 0-37.288 0-67.536 30.147-67.697 67.398v149.633c0 0 0 0 0 0.001 0 37.231 30.182 67.413 67.413 67.413 0.1 0 0.2 0 0.3-0.001h7.38c37.109-0.162 67.129-30.281 67.129-67.413 0 0 0 0 0-0.001zM654.222 28.444h-284.444v113.778h284.444zM910.222 323.413c-0.159-37.067-30.085-67.092-67.098-67.413h-7.426c0 0 0 0-0.001 0-37.288 0-67.536 30.147-67.697 67.398v149.633c0 0 0 0 0 0.001 0 37.231 30.182 67.413 67.413 67.413 0.1 0 0.2 0 0.3-0.001h7.38c37.109-0.162 67.129-30.281 67.129-67.413 0 0 0 0 0-0.001z" />
<glyph unicode="&#xe907;" glyph-name="user" d="M512 455.111c-192 0-301.511-64.853-301.511-64.853l106.667-333.369h390.542l106.098 333.653c-82.987 40.893-180.655 64.813-283.908 64.813-6.29 0-12.559-0.089-18.806-0.265zM686.364 85.333h-348.444l-92.729 290.987c67.034 27.495 144.677 45.203 225.934 49.146 14.422 0.063 26.937 0.063 40.875 0.063s28.444 0 40.96 0c82.359-3.867 159.531-21.588 230.722-50.88zM512 540.444c94.257 0 170.667 76.41 170.667 170.667s-76.41 170.667-170.667 170.667c-94.257 0-170.667-76.41-170.667-170.667s76.41-170.667 170.667-170.667zM512 853.333c78.547 0 142.222-63.675 142.222-142.222s-63.675-142.222-142.222-142.222c-78.547 0-142.222 63.675-142.222 142.222s63.675 142.222 142.222 142.222z" />
<glyph unicode="&#xe908;" glyph-name="phone" d="M796.444-28.445c-153.031 0-387.982 107.236-506.596 231.253-209.92 219.022-301.511 514.276-199.111 644.267l88.178 91.591h129.707l91.591-259.698-113.778-113.778c8.533-25.031 43.52-110.080 150.187-213.333s181.191-121.173 199.111-123.449l116.338 87.324 243.484-122.027v-100.124l-89.6-89.6c-27.604-20.429-62.321-32.7-99.903-32.7-3.38 0-6.736 0.099-10.067 0.295zM190.862 910.222l-81.351-81.067c-100.409-128.853 24.178-422.969 199.111-605.867 156.729-163.556 486.116-276.48 577.707-199.111l80.782 81.351v70.542l-211.911 105.813-110.364-82.773h-4.836c-3.413 0-88.747 1.991-223.289 131.982s-159.289 230.116-160.711 234.382l-1.991 7.68 113.778 113.778-79.076 223.289z" />
<glyph unicode="&#xe909;" glyph-name="bin" d="M369.778 924.444c0 7.855 6.368 14.222 14.222 14.222h256c7.855 0 14.222-6.368 14.222-14.222v-42.667h28.444v42.667c0 0 0 0.001 0 0.001 0 23.464-18.941 42.504-42.367 42.666h-256.015c-0.084 0.001-0.184 0.001-0.284 0.001-23.564 0-42.667-19.103-42.667-42.667 0 0 0-0.001 0-0.001v-42.667h28.444zM938.667 782.222c0 0 0 0.001 0 0.001 0 23.464-18.941 42.504-42.367 42.666h-768.015c-0.084 0.001-0.184 0.001-0.284 0.001-23.564 0-42.667-19.103-42.667-42.667 0 0 0-0.001 0-0.001v-71.111h85.333l56.889-725.333c0 0 0-0.001 0-0.001 0-23.564 19.103-42.667 42.667-42.667 0.1 0 0.2 0 0.3 0.001h483.54c0.003 0 0.006 0 0.009 0 23.107 0 41.895 18.492 42.373 41.484l56.89 726.516h85.333zM768-14.222c0-7.855-6.368-14.222-14.222-14.222h-483.556c-7.9 0.146-14.247 6.584-14.247 14.504 0 0.301 0.009 0.6 0.027 0.896l-55.469 724.155h624.356zM910.222 739.555h-796.444v42.667c0 7.855 6.368 14.222 14.222 14.222h768c7.855 0 14.222-6.368 14.222-14.222zM341.554 539.431l28.382 1.89 28.408-426.575-28.382-1.89-28.408 426.575zM498.062 540.444h28.444v-426.667h-28.444v426.667zM626.1 114.742l28.408 426.575 28.382-1.89-28.408-426.575-28.382 1.89z" />
<glyph unicode="&#xe90a;" glyph-name="shield-checkmark-cross" d="M659.058 649.387l-146.773-139.378-146.489 139.662-19.627-20.764 145.636-138.24-145.636-138.524 19.627-20.48 146.489 139.093 146.773-139.093 19.627 20.48-145.636 138.524 145.636 138.24-19.627 20.48zM967.111 814.364l-2.276 7.964-452.836 116.338-451.982-116.338-3.129-7.964c0-5.689-150.756-582.827 449.707-842.809h5.404l5.689 2.56c600.462 257.422 449.422 834.56 449.422 840.249zM942.080 496.355c-46.364-223.858-191.147-390.542-430.080-496.356-238.933 105.813-383.431 272.498-429.511 496.356-9.761 45.492-15.352 97.755-15.352 151.324s5.59 105.834 16.219 156.24l428.644 106.302 429.511-111.218c9.947-45.907 15.643-98.644 15.643-152.711 0-53.072-5.489-104.862-15.93-154.833z" />
<glyph unicode="&#xe90b;" glyph-name="coincs-circle-percentage" d="M739.556 284.444c-31.419 0-56.889 25.47-56.889 56.889s25.47 56.889 56.889 56.889c31.419 0 56.889-25.47 56.889-56.889s-25.47-56.889-56.889-56.889zM739.556 369.778c-15.709 0-28.444-12.735-28.444-28.444s12.735-28.444 28.444-28.444c15.709 0 28.444 12.735 28.444 28.444s-12.735 28.444-28.444 28.444zM853.333 170.667c-31.419 0-56.889 25.47-56.889 56.889s25.47 56.889 56.889 56.889c31.419 0 56.889-25.47 56.889-56.889s-25.47-56.889-56.889-56.889zM853.333 256c-15.709 0-28.444-12.735-28.444-28.444s12.735-28.444 28.444-28.444c15.709 0 28.444 12.735 28.444 28.444s-12.735 28.444-28.444 28.444zM686.814 194.896l199.121 199.121 20.113-20.113-199.121-199.121-20.113 20.113zM455.111 321.138c16.44-3.563 35.941-6.199 55.842-7.347 2.264 11.080 3.866 20.767 5.943 30.276-23.157-0.756-44.605 2.294-65.365 7.133zM455.111 461.938v-28.444c25.627-4.307 55.176-6.788 85.296-6.827h9.993c6.294 11.022 12.407 20.31 19.027 29.2-9.924-0.755-19.311-0.755-28.982-0.755-0.899-0.006-1.963-0.009-3.027-0.009-29.071 0-57.561 2.486-85.27 7.258zM739.556 832l-5.689 4.267c-2.56 1.991-62.293 45.511-193.422 45.511s-191.147-43.804-193.422-45.511l-5.689-4.267v-167.822c10.524-3.129 19.911-6.258 28.444-9.387v31.004c45.194-20.197 97.94-31.96 153.434-31.96 6.061 0 12.089 0.14 18.081 0.418 4.41-0.288 10.571-0.434 16.766-0.434 55.338 0 107.952 11.662 155.518 32.663l-2.466-82.038c-14.791-9.671-64.569-35.556-170.667-35.556-0.899-0.006-1.963-0.009-3.027-0.009-29.071 0-57.561 2.486-85.27 7.258l2.964-28.867c25.628-4.308 55.176-6.789 85.297-6.827 5.31-0.258 11.49-0.405 17.704-0.405 55.32 0 107.916 11.663 155.463 32.665l-2.463-16.9c7.335 2.467 16.878 5.020 26.605 7.071zM540.444 853.333c3.86 0.142 8.394 0.224 12.947 0.224 51.883 0 101.304-10.539 146.239-29.593-44.239-17.257-92.911-27.835-144.054-27.835-5.322 0-10.616 0.115-15.882 0.341-3.765-0.228-9.060-0.343-14.383-0.343-51.046 0-99.62 10.579-143.651 29.664 44.78 17.223 94.157 27.76 145.996 27.76 4.497 0 8.976-0.079 13.435-0.237zM540.444 682.667c-107.236 0-156.729 26.453-170.667 35.84v81.067c45.177-20.199 97.905-31.963 153.381-31.963 6.080 0 12.127 0.141 18.137 0.421 4.391-0.286 10.534-0.432 16.711-0.432 55.355 0 107.987 11.661 155.573 32.661l-2.468-82.038c-14.791-9.671-64.569-35.556-170.667-35.556zM796.444 56.889c-125.675 0-227.556 101.88-227.556 227.556s101.88 227.556 227.556 227.556c125.675 0 227.556-101.88 227.556-227.556s-101.88-227.556-227.556-227.556zM796.444 483.555c-109.966 0-199.111-89.145-199.111-199.111s89.145-199.111 199.111-199.111c109.966 0 199.111 89.145 199.111 199.111s-89.145 199.111-199.111 199.111zM199.111 170.667c-142.222 0-192.284 46.933-194.56 48.924l-4.551 4.267v352.142l5.689 4.267c2.56 1.707 61.724 45.511 193.422 45.511s190.862-43.52 193.422-45.511l5.689-4.267v-352.142l-4.267-4.267c-1.991-1.991-52.622-48.924-194.844-48.924zM28.444 236.658c14.222-9.102 63.431-37.547 170.667-37.547s156.729 28.444 170.667 37.547v79.076c-45.101-20.029-97.714-31.692-153.052-31.692-6.195 0-12.356 0.146-18.48 0.435-4.246-0.275-10.237-0.414-16.261-0.414-55.53 0-108.312 11.761-155.993 32.927zM28.444 348.444c14.222-9.387 64-35.556 170.667-35.556s155.876 26.169 170.667 35.556v81.067c-45.084-20.031-97.68-31.694-152.999-31.694-6.214 0-12.394 0.147-18.536 0.438-4.243-0.276-10.234-0.414-16.258-0.414-55.53 0-108.312 11.761-155.993 32.927zM28.444 462.222c14.222-9.387 64-35.556 170.667-35.556s156.16 26.169 170.667 35.556v81.067c-45.084-20.031-97.68-31.694-152.999-31.694-6.214 0-12.394 0.147-18.536 0.438-4.421-0.293-10.619-0.441-16.851-0.441-55.302 0-107.88 11.664-155.407 32.667zM42.667 568.889c41.708-18.181 90.3-28.759 141.363-28.759 5.304 0 10.581 0.114 15.83 0.34 3.797-0.23 9.129-0.346 14.487-0.346 51.108 0 99.745 10.58 143.84 29.669-44.858 17.222-94.315 27.76-146.233 27.76-4.516 0-9.014-0.080-13.491-0.238-3.32 0.17-7.98 0.257-12.66 0.257-51.662 0-100.862-10.546-145.563-29.602z" />
<glyph unicode="&#xe90c;" glyph-name="list-view" d="M256 199.111h711.111v-28.444h-711.111v28.444zM128 113.778c-39.274 0-71.111 31.838-71.111 71.111s31.838 71.111 71.111 71.111c39.274 0 71.111-31.838 71.111-71.111s-31.838-71.111-71.111-71.111zM128 227.555c-23.564 0-42.667-19.103-42.667-42.667s19.103-42.667 42.667-42.667c23.564 0 42.667 19.103 42.667 42.667s-19.103 42.667-42.667 42.667zM256 483.555h711.111v-28.444h-711.111v28.444zM128 398.222c-39.274 0-71.111 31.838-71.111 71.111s31.838 71.111 71.111 71.111c39.274 0 71.111-31.838 71.111-71.111s-31.838-71.111-71.111-71.111zM128 512c-23.564 0-42.667-19.103-42.667-42.667s19.103-42.667 42.667-42.667c23.564 0 42.667 19.103 42.667 42.667s-19.103 42.667-42.667 42.667zM256 768h711.111v-28.444h-711.111v28.444zM128 682.667c-39.274 0-71.111 31.838-71.111 71.111s31.838 71.111 71.111 71.111c39.274 0 71.111-31.838 71.111-71.111s-31.838-71.111-71.111-71.111zM128 796.444c-23.564 0-42.667-19.103-42.667-42.667s19.103-42.667 42.667-42.667c23.564 0 42.667 19.103 42.667 42.667s-19.103 42.667-42.667 42.667z" />
<glyph unicode="&#xe90d;" glyph-name="graph-view" d="M967.111 28.444h-113.778v739.556h-170.667v-739.556h-85.333v455.111h-170.667v-455.111h-85.333v256h-170.667v-256h-85.333v881.778h-28.444v-910.222h910.222zM711.111 739.555h113.778v-711.111h-113.778zM199.111 256h113.778v-227.556h-113.778zM455.111 455.111h113.778v-426.667h-113.778z" />
<glyph unicode="&#xe90e;" glyph-name="quality" d="M441.173 306.915l-123.733 124.018 20.196 19.911 103.538-103.538 246.044 245.76 19.911-19.911-265.956-266.24zM512 904.249l78.507-53.476 12.231 2.56 81.636 16.782 45.511-69.689 6.542-10.24 11.947-2.276 81.351-15.36 15.36-81.351 2.276-11.947 10.24-6.542 69.689-46.933-17.067-80.498-2.56-11.947 6.827-9.956 46.933-68.267-46.649-68.551-6.827-9.956 2.56-11.947 16.782-80.213-69.689-45.511-10.24-6.542-2.276-11.947-15.36-81.351-93.298-17.636-6.542-10.24-45.511-69.689-81.636 15.36-11.947 2.56-9.956-6.827-68.836-46.649-78.222 53.476-11.947-2.56-80.498-16.782-45.511 69.689-6.542 10.24-11.947 2.276-81.351 15.36-16.498 81.351-2.276 11.947-10.24 6.542-69.689 46.933 16.498 80.498 2.56 11.947-6.827 9.956-46.364 68.267 46.649 68.551 6.827 9.956-2.844 11.662-16.498 80.498 69.689 45.511 10.24 6.542 2.276 11.947 15.36 81.351 81.351 16.782 11.947 2.276 6.542 10.24 46.649 69.689 92.729-19.342 77.938 53.476zM512 938.667l-85.333-56.889-99.556 20.196-56.889-85.333-99.556-20.196-19.058-100.124-85.333-56.889 19.058-98.987-56.889-85.333 56.889-85.333-20.764-100.693 85.333-56.889 20.764-98.418 100.693-18.773 56.889-85.333 98.418 18.773 85.333-56.889 85.333 56.889 100.693-20.764 56.889 85.333 98.418 20.764 18.773 100.693 85.333 56.889-18.773 98.418 56.889 85.333-56.889 85.333 20.764 100.693-85.333 56.889-20.764 98.418-99.556 19.342-56.889 85.333-99.556-19.342-85.333 56.889z" />
<glyph unicode="&#xe90f;" glyph-name="pin" d="M526.507-39.253l-11.662 17.067c-12.8 18.489-315.733 458.524-315.733 633.742 0 180.658 146.453 327.111 327.111 327.111s327.111-146.453 327.111-327.111c0-175.218-302.649-615.253-315.449-634.027zM526.507 910.222c-165.006 0-298.789-133.683-298.951-298.651 0-147.642 242.062-516.282 298.667-600.478 56.889 85.333 298.667 452.836 298.667 600.462-0.161 164.784-133.621 298.343-298.351 298.667zM526.507 426.667c-0.085 0-0.184 0-0.284 0-102.111 0-184.889 82.778-184.889 184.889s82.778 184.889 184.889 184.889c102.111 0 184.889-82.778 184.889-184.889-0.161-101.946-82.68-184.566-184.573-184.889zM526.507 768c-0.084 0-0.184 0-0.284 0-86.402 0-156.444-70.043-156.444-156.444s70.043-156.444 156.444-156.444c86.402 0 156.444 70.042 156.444 156.444-0.161 86.237-69.945 156.122-156.129 156.444z" />
<glyph unicode="&#xe910;" glyph-name="green-electricity" d="M512 938.667c-1.105 0.013-2.411 0.020-3.718 0.020-186.471 0-337.636-151.165-337.636-337.636 0-1.307 0.007-2.613 0.022-3.917 0.718-109.688 45.835-208.899 118.289-280.511 50.954-46.118 95.327-163.878 95.896-165.3l3.413-9.102h247.467l3.413 9.387s40.676 113.778 95.573 164.693c72.662 71.677 117.893 171.003 118.613 280.895 0.014 1.241 0.021 2.547 0.021 3.854 0 186.471-151.165 337.636-337.636 337.636-1.307 0-2.613-0.007-3.917-0.022zM715.662 337.635c-50.631-46.364-88.178-138.524-99.556-166.969h-89.6v312.889h-28.444v-169.244c-72.067 7.305-127.892 67.472-128.284 140.76 0 85.373 116.338 277.089 142.222 284.485 26.738-7.396 142.222-199.111 142.222-284.444 0.373-3.719 0.586-8.039 0.586-12.408 0-29.371-9.615-56.496-25.868-78.4l22.153-17.85c19.971 26.836 31.972 60.634 31.972 97.234 0 4.020-0.145 8.006-0.429 11.953 0.031 87.080-122.849 312.36-170.636 312.36s-170.667-225.28-170.667-312.889c-0.001-0.176-0.001-0.385-0.001-0.594 0-89.251 68.509-162.5 155.809-170.029l0.637-113.822h-89.6c-11.947 29.867-52.053 123.733-99.84 166.969-66.426 66.654-107.905 158.207-109.224 259.446-0.015 1.272-0.022 2.477-0.022 3.684 0 170.919 138.557 309.476 309.476 309.476 1.207 0 2.412-0.007 3.616-0.021 0.837 0.014 2.042 0.021 3.249 0.021 170.919 0 309.476-138.557 309.476-309.476 0-1.207-0.007-2.412-0.021-3.616-1.125-101.239-42.414-192.803-108.677-259.536zM398.507 113.493h227.556v-28.444h-227.556v28.444zM426.951 56.889h170.667v-28.444h-170.667v28.444zM455.396 0h113.778v-28.444h-113.778v28.444z" />
<glyph unicode="&#xe911;" glyph-name="electricity-plug" d="M739.556 423.822v173.511h56.889v85.333h-625.778v-85.333h56.889v-173.511c1.346-135.433 107.653-245.608 241.392-253.125 0.984-37.482 14.703-71.671 37.256-98.091 27.726-27.456 66.148-44.554 108.564-44.554 3.874 0 7.716 0.143 11.518 0.423l170.159-0.030v28.444h-170.667c-2.88-0.231-6.236-0.363-9.623-0.363-34.521 0-65.844 13.696-88.829 35.952-17.537 21.232-28.249 48.729-28.41 78.723 133.604 8.302 239.036 117.895 240.638 252.464zM199.111 625.778v28.444h568.889v-28.444zM483.556 199.111c-0.005 0-0.011 0-0.018 0-124.675 0-225.933 100.265-227.536 224.56l-0.002 173.662h455.111v-173.511c-1.605-124.446-102.862-224.711-227.538-224.711-0.006 0-0.013 0-0.019 0zM341.333 881.778h28.444v-142.222h-28.444v142.222zM597.333 881.778h28.444v-142.222h-28.444v142.222zM341.333 483.555h284.444v-28.444h-284.444v28.444zM398.222 398.222h170.667v-28.444h-170.667v28.444z" />
<glyph unicode="&#xe912;" glyph-name="petrol-station" d="M256 625.778h341.333v256h-341.333zM284.444 853.333h284.444v-199.111h-284.444zM850.489 886.898l-22.471-17.351 82.204-106.382v-52.053h-14.222c-23.564 0-42.667-19.103-42.667-42.667v-113.778c0-23.564 19.103-42.667 42.667-42.667h14.222v-270.222c0-7.855-6.368-14.222-14.222-14.222h-85.333c-7.855 0-14.222 6.368-14.222 14.222v284.444c0 23.564-19.103 42.667-42.667 42.667h-71.111v355.556c0 23.564-19.103 42.667-42.667 42.667h-426.667c-23.564 0-42.667-19.103-42.667-42.667v-952.889h-85.333v-28.444h682.667v28.444h-85.333v568.889h71.111c7.855 0 14.222-6.368 14.222-14.222v-284.444c0-23.564 19.103-42.667 42.667-42.667h85.333c23.564 0 42.667 19.103 42.667 42.667v531.058zM910.222 540.444h-14.222c-7.855 0-14.222 6.368-14.222 14.222v113.778c0 7.855 6.368 14.222 14.222 14.222h14.222zM199.111-28.445v952.889c0 7.855 6.368 14.222 14.222 14.222h426.667c7.855 0 14.222-6.368 14.222-14.222v-952.889zM341.333 796.444h113.778v-28.444h-113.778v28.444zM341.333 739.555h170.667v-28.444h-170.667v28.444z" />
<glyph unicode="&#xe913;" glyph-name="charging-station" d="M910.222 796.444v56.889h-28.444v-56.889h-85.333v56.889h-28.444v-56.889h-28.444v-99.556c0-39.274 31.838-71.111 71.111-71.111h14.222v-384c0-7.855-6.368-14.222-14.222-14.222h-56.889c-7.855 0-14.222 6.368-14.222 14.222v284.444c0 23.564-19.103 42.667-42.667 42.667h-71.111v355.556c0 23.564-19.103 42.667-42.667 42.667h-256c-23.564 0-42.667-19.103-42.667-42.667v-952.889h-85.333v-28.444h512v28.444h-85.333v568.889h71.111c7.855 0 14.222-6.368 14.222-14.222v-284.444c0-23.564 19.103-42.667 42.667-42.667h56.889c23.564 0 42.667 19.103 42.667 42.667v384h14.222c39.274 0 71.111 31.838 71.111 71.111v99.556zM312.889-28.445v952.889c0 7.855 6.368 14.222 14.222 14.222h256c7.855 0 14.222-6.368 14.222-14.222v-952.889zM910.222 696.889c0-23.564-19.103-42.667-42.667-42.667h-56.889c-23.564 0-42.667 19.103-42.667 42.667v71.111h142.222zM469.333 694.329l-27.876 5.12-33.564-184.32 57.458 28.444-23.893-143.076 27.876-4.551 33.28 198.258-56.604-28.444 23.324 128.569z" />
<glyph unicode="&#xe914;" glyph-name="visa-card-shield-checkmark" d="M483.556 512h56.889c0.523 0.067 1.127 0.105 1.741 0.105 6.941 0 12.743-4.874 14.17-11.387l12.533-60.967c-14.832 35.778-46.381 61.962-84.634 69.013zM552.391 369.778l-32.996 120.604c21.789-14.083 39.125-33.334 50.543-56.070l4.355-15.325 35.84 93.013h38.969l-56.889-142.222zM676.978 369.778h-37.831l23.609 142.222h37.831l-23.609-142.222zM739.556 369.778c-0.681-0.015-1.483-0.024-2.287-0.024-13.904 0-27.196 2.618-39.411 7.389l5.858 30.751 5.12-1.991c9.592-4.845 20.91-7.683 32.89-7.683 0.237 0 0.474 0.001 0.711 0.003 11.057 0 21.866 3.982 21.866 13.369s-5.12 10.24-19.058 17.636-31.858 17.636-31.858 36.978c0 26.738 25.884 45.227 61.724 45.227 0.27 0.003 0.589 0.005 0.908 0.005 11.566 0 22.595-2.301 32.653-6.47l-5.686-29.659-3.129 1.991c-7.347 3.258-15.917 5.155-24.93 5.155-0.736 0-1.468-0.013-2.198-0.038-13.832 0.003-20.943-6.255-20.943-12.228s7.964-10.24 21.049-17.636c21.049-10.24 31.004-21.618 31.004-36.978-0.569-27.307-25.6-45.796-64.284-45.796zM910.222 512h-28.444c-0.829 0.136-1.784 0.213-2.757 0.213-7.729 0-14.316-4.893-16.83-11.751l-55.791-130.684h39.822c2.945 8.075 5.421 17.654 6.992 27.535l47.052 0.909c0-10.809 3.982-28.444 3.982-28.444h35.84zM864.711 426.667c3.129 7.111 15.076 38.116 15.076 38.116l5.12 13.369 1.991-11.378s7.111-32.996 7.964-40.107zM213.618 69.973l-5.404 2.276c-254.578 107.236-193.991 369.209-193.138 372.053l1.991 8.533 196.551 45.511 196.551-45.511 1.991-8.533c0-2.56 61.156-264.818-193.138-372.053zM40.96 428.942c-8.249-43.52-31.289-238.649 172.658-328.249 201.671 88.747 180.053 284.444 172.658 328.249l-172.658 39.822zM952.889 881.778h-768c-39.274 0-71.111-31.838-71.111-71.111v-277.333l28.444 7.111v270.222c0 23.564 19.103 42.667 42.667 42.667h768c23.564 0 42.667-19.103 42.667-42.667v-483.556c0-23.564-19.103-42.667-42.667-42.667h-486.4c-1.991-9.387-4.267-18.773-7.111-28.444h493.511c39.274 0 71.111 31.838 71.111 71.111v483.556c0 39.274-31.838 71.111-71.111 71.111zM185.173 235.804l-52.622 52.907 20.196 19.911 32.427-32.427 89.6 89.316 20.196-19.911-109.796-109.796z" />
<glyph unicode="&#xe915;" glyph-name="reload" d="M360.391 728.462c43.817 24.813 96.232 39.436 152.062 39.436 35.771 0 70.14-6.003 102.155-17.056l6.903 27.683c-32.498 11.317-69.958 17.853-108.944 17.853-188.513 0-341.333-152.82-341.333-341.333 0-60.857 15.926-117.994 43.838-167.47 4.519-8.249 10.493-17.921 17.035-26.738 19.073-27.427 41.046-51.027 65.924-71.181l9.453-6.756-125.44-24.747 5.404-28.444 170.667 34.133-34.133 170.667-28.444-5.404 24.178-122.88-5.12 3.698c-22.449 19.315-41.816 41.303-57.868 65.668q-9.545 13.692-16.941 27.345c-24.933 43.901-39.628 96.438-39.628 152.407 0 116.734 63.927 218.538 158.682 272.312zM814.649 613.262l-3.982 7.68c-18.013 32.16-39.675 59.713-64.957 83.458q-12.412 11.546-25.496 21.502h-1.991l125.156 24.747-5.404 28.444-170.667-34.133 34.133-170.667 28.444 5.404-24.462 123.164c7.68-5.973 15.36-12.231 22.471-19.058 23.358-21.958 43.225-47.263 58.921-75.225l4.51-8.402c22.616-42.194 35.903-92.309 35.903-145.527 0-172.804-140.085-312.889-312.889-312.889-36.385 0-71.32 6.211-103.802 17.63l-6.91-27.694c32.345-11.203 69.621-17.673 108.409-17.673 188.513 0 341.333 152.82 341.333 341.333 0 57.718-14.326 112.090-39.616 159.754z" />
<glyph unicode="&#xe916;" glyph-name="visa-card-lock" d="M952.889 625.778h-384v-28.444h384c23.564 0 42.667-19.103 42.667-42.667v-483.556c0-23.564-19.103-42.667-42.667-42.667h-768c-23.564 0-42.667 19.103-42.667 42.667v213.333h-28.444v-213.333c0-39.274 31.838-71.111 71.111-71.111h768c39.274 0 71.111 31.838 71.111 71.111v483.556c0 39.274-31.838 71.111-71.111 71.111zM455.111 256h56.889c0.523 0.067 1.127 0.105 1.741 0.105 6.941 0 12.743-4.874 14.17-11.387l12.533-60.967c-14.832 35.778-46.381 61.962-84.634 69.013zM523.947 118.898l-32.996 115.484c21.789-14.083 39.125-33.334 50.543-56.070l4.355-15.325 35.84 93.013h38.969l-56.889-138.24zM648.533 113.778h-38.116l23.893 142.222h37.831l-23.609-142.222zM711.111 113.778c-0.681-0.015-1.483-0.024-2.287-0.024-13.904 0-27.196 2.618-39.411 7.389l5.858 30.751 5.12-1.991c9.592-4.845 20.91-7.683 32.89-7.683 0.237 0 0.474 0.001 0.711 0.003 11.057 0 21.866 3.982 21.866 13.369s-5.12 10.24-19.058 17.636-31.858 17.636-31.858 36.978c0 26.738 25.884 45.227 61.724 45.227 0.27 0.003 0.589 0.005 0.908 0.005 11.566 0 22.595-2.301 32.653-6.47l-5.686-29.659-3.129 1.991c-7.347 3.258-15.917 5.155-24.93 5.155-0.736 0-1.468-0.013-2.198-0.038-13.832 0.003-20.943-6.255-20.943-12.228s7.964-10.24 21.049-17.636c21.049-10.24 31.004-21.618 31.004-36.978-0.569-27.307-25.6-45.796-64.284-45.796zM881.778 256h-28.444c-0.829 0.136-1.784 0.213-2.757 0.213-7.729 0-14.316-4.893-16.83-11.751l-55.791-130.684h39.822c2.945 8.075 5.421 17.654 6.992 27.535l47.052 0.909c0-10.809 3.982-28.444 3.982-28.444h35.84zM836.267 170.667c3.129 7.111 15.076 38.116 15.076 38.116l5.12 13.369 1.991-11.378s7.111-32.996 7.964-40.107zM113.778 796.444c0 78.547 63.675 142.222 142.222 142.222s142.222-63.675 142.222-142.222h28.444c0 94.257-76.41 170.667-170.667 170.667s-170.667-76.41-170.667-170.667zM256 611.555c15.709 0 28.444-12.735 28.444-28.444s-12.735-28.444-28.444-28.444c-15.709 0-28.444 12.735-28.444 28.444s12.735 28.444 28.444 28.444zM256 640c-31.419 0-56.889-25.47-56.889-56.889s25.47-56.889 56.889-56.889c31.419 0 56.889 25.47 56.889 56.889s-25.47 56.889-56.889 56.889zM242.062 540.444h28.444v-85.333h-28.444v85.333zM441.173 341.333h-369.778c-0.084 0-0.184-0.001-0.284-0.001-39.274 0-71.111 31.838-71.111 71.111 0 0 0 0 0 0.001v284.444c0 0 0 0 0 0.001 0 39.274 31.838 71.111 71.111 71.111 0.1 0 0.2 0 0.3-0.001h369.762c39.151-0.162 70.827-31.937 70.827-71.111 0 0 0 0 0-0.001v-284.444c0 0 0 0 0-0.001 0-39.174-31.676-70.949-70.811-71.11zM71.396 739.555c-0.084 0.001-0.184 0.001-0.284 0.001-23.564 0-42.667-19.103-42.667-42.667 0 0 0-0.001 0-0.001v-284.444c0 0 0-0.001 0-0.001 0-23.564 19.103-42.667 42.667-42.667 0.1 0 0.2 0 0.3 0.001h369.762c23.442 0.161 42.382 19.202 42.382 42.666 0 0 0 0.001 0 0.001v284.444c0 0 0 0.001 0 0.001 0 23.464-18.941 42.504-42.367 42.666z" />
<glyph unicode="&#xe917;" glyph-name="hands-heart" d="M971.947 696.604c-2.097 0.349-4.513 0.548-6.976 0.548-17.622 0-32.86-10.207-40.125-25.032l-36.525-193.401-97.28-93.298h-65.707l44.373 61.156c11.518 10.684 18.703 25.9 18.703 42.795 0 12.642-4.023 24.344-10.859 33.897-7.389 6.906-17.23 11.59-28.135 12.609-1.091 0.062-2.147 0.089-3.209 0.089-18.995 0-35.977-8.62-47.247-22.161l-158.516-210.304v-303.502h199.111v179.2l242.631 251.733 26.453 227.556c0 0.008 0 0.017 0 0.027 0 20.55-16.264 37.302-36.622 38.087zM955.164 444.018l-244.053-253.44v-162.133h-142.222v265.387l151.893 199.111c21.902 21.618 35.271 9.387 36.693 8.249 1.523-3.73 2.408-8.058 2.408-12.592 0-10.289-4.552-19.514-11.753-25.772l-78.833-108.409 133.689 1.707 111.787 107.52 36.978 197.12c3.008 4.397 8.001 7.245 13.659 7.245 1.309 0 2.583-0.153 3.804-0.441 7.568 0.022 11.55-3.96 11.55-8.511zM278.187 535.040v0c-0.081 0-0.177 0.001-0.272 0.001-12.555 0-23.972-4.871-32.465-12.825-6.951-9.312-11.146-21.083-11.146-33.833 0-16.363 6.909-31.113 17.968-41.492l46.395-62.322h-65.138l-98.702 94.151-35.556 190.009v2.844c-7.389 15.294-22.781 25.657-40.594 25.657-2.641 0-5.229-0.228-7.745-0.665-20.336-0.727-36.749-17.615-36.749-38.337 0-0.609 0.014-1.215 0.042-1.817l26.45-225.479 243.769-251.733v-179.2h199.111v303.502l-160.996 210.489c-10.981 12.363-26.682 20.325-44.25 21.045zM455.111 28.444h-142.222v162.133l-244.907 253.156-25.316 215.324c0 1.991 0 7.964 11.662 9.387 1.109 0.266 2.383 0.418 3.692 0.418 5.658 0 10.65-2.848 13.622-7.189l37.014-197.176 113.778-107.236 133.973-1.707-82.204 109.511c-6.618 6.055-10.752 14.73-10.752 24.371 0 4.548 0.92 8.881 2.585 12.824 1.341 1.205 14.994 13.437 35.474-7.043l153.6-201.387zM711.111 796.444c0.054 1.323 0.084 2.875 0.084 4.435 0 31.413-12.39 59.933-32.549 80.938-17.776 17.548-42.267 28.412-69.294 28.412-0.425 0-0.85-0.003-1.274-0.008-41.070-0.282-76.856-22.908-95.791-56.337-18.203 33.163-52.905 55.842-92.948 56.337-59.198-1.534-106.546-49.834-106.546-109.191 0-1.613 0.035-3.217 0.104-4.813 1.864-32.765 14.915-62.391 35.38-85.238l163.723-177.361 164.409 180.053c18.228 22.843 30.652 51.069 34.615 81.944zM512 576.569l-142.222 156.444c-15.423 16.948-25.746 38.784-28.4 62.929-0.061 1.107-0.070 1.819-0.070 2.533 0 43.724 34.737 79.334 78.119 80.739 43.765-1.251 78.661-36.924 78.661-80.748 0-0.711-0.009-1.42-0.027-2.127l28.447 0.104c0 0.024 0 0.052 0 0.080 0 45.828 36.126 83.218 81.453 85.247 20.104-0.128 38.043-8.499 50.787-21.867 14.858-15.769 23.972-37.040 23.972-60.439 0-1.062-0.019-2.12-0.056-3.173-3.95-24.54-14.037-46.367-28.64-64.386z" />
<glyph unicode="&#xe918;" glyph-name="suitcase" d="M953.173 768h-881.778c-0.084 0-0.184 0.001-0.284 0.001-39.274 0-71.111-31.838-71.111-71.111 0 0 0 0 0-0.001v-625.778c0 0 0 0 0-0.001 0-39.274 31.838-71.111 71.111-71.111 0.1 0 0.2 0 0.3 0.001h881.762c39.151 0.162 70.827 31.937 70.827 71.111 0 0 0 0 0 0.001v625.778c0 0 0 0 0 0.001 0 39.174-31.676 70.949-70.811 71.11zM71.396 28.444c-0.084-0.001-0.184-0.001-0.284-0.001-23.564 0-42.667 19.103-42.667 42.667 0 0 0 0.001 0 0.001v625.778c0 0 0 0.001 0 0.001 0 23.564 19.103 42.667 42.667 42.667 0.1 0 0.2 0 0.3-0.001h70.811v-711.111zM170.667 28.444v711.111h56.889v-711.111zM256 28.444v711.111h512v-711.111zM796.444 28.444v711.111h56.889v-711.111zM995.556 71.111c0-23.564-19.103-42.667-42.667-42.667h-71.111v711.111h71.111c23.564 0 42.667-19.103 42.667-42.667zM369.778 867.555c0 7.855 6.368 14.222 14.222 14.222h256c7.855 0 14.222-6.368 14.222-14.222v-42.667h28.444v42.667c0 0 0 0.001 0 0.001 0 23.464-18.941 42.504-42.367 42.666h-256.015c-0.084 0.001-0.184 0.001-0.284 0.001-23.564 0-42.667-19.103-42.667-42.667 0 0 0-0.001 0-0.001v-42.667h28.444z" />
<glyph unicode="&#xe919;" glyph-name="monitor-lines-lock" d="M170.667 768h227.556v-28.444h-227.556v28.444zM170.667 711.111h341.333v-28.444h-341.333v28.444zM853.333 312.889c31.419 0 56.889-25.47 56.889-56.889h28.444c0 47.128-38.205 85.333-85.333 85.333s-85.333-38.205-85.333-85.333h28.444c0 31.419 25.47 56.889 56.889 56.889zM857.316 146.204c-19.089-0.101-34.525-15.599-34.525-34.702 0-13.945 8.225-25.969 20.089-31.484l0.214-49.867h28.444v49.778c12.078 5.605 20.303 17.629 20.303 31.574 0 19.103-15.436 34.601-34.516 34.702zM857.316 104.96c-3.456 0-6.258 2.802-6.258 6.258s2.802 6.258 6.258 6.258c3.456 0 6.258-2.802 6.258-6.258-0.156-3.331-2.895-5.973-6.251-5.973-0.002 0-0.005 0-0.007 0zM975.36 227.555h-243.484c-0.343 0.009-0.747 0.014-1.152 0.014-26.549 0-48.071-21.522-48.071-48.071 0-0.405 0.005-0.809 0.015-1.211l-0.001-185.967c-0.009-0.343-0.014-0.747-0.014-1.152 0-26.549 21.522-48.071 48.071-48.071 0.405 0 0.809 0.005 1.211 0.015l243.425-0.001c0.173-0.002 0.378-0.004 0.582-0.004 26.549 0 48.071 21.522 48.071 48.071 0 0.401-0.005 0.802-0.015 1.2l0.001 185.967c0.009 0.34 0.014 0.74 0.014 1.141 0 26.549-21.522 48.071-48.071 48.071-0.205 0-0.409-0.001-0.614-0.004zM995.556-7.68c0.022-0.346 0.034-0.751 0.034-1.158 0-10.84-8.787-19.627-19.627-19.627-0.312 0-0.623 0.007-0.931 0.022l-243.156-0.002c-0.265-0.013-0.575-0.020-0.888-0.020-10.84 0-19.627 8.787-19.627 19.627 0 0.407 0.012 0.812 0.037 1.213l-0.003 185.972c-0.022 0.346-0.034 0.751-0.034 1.158 0 10.84 8.787 19.627 19.627 19.627 0.312 0 0.623-0.007 0.931-0.022l243.441 0.002c0.265 0.013 0.575 0.020 0.888 0.020 10.84 0 19.627-8.787 19.627-19.627 0-0.407-0.012-0.812-0.037-1.213zM284.444 113.778h342.187v-28.444h-342.187v28.444zM853.333 398.222c10.124-0.092 19.931-1.227 29.386-3.302l-0.942 458.413h-796.444v-512h654.222c8.205 10.868 17.577 20.239 28.087 28.185l-653.864 0.259v455.111h739.556v-426.667zM28.444 241.778v625.778c0 23.564 19.103 42.667 42.667 42.667h824.889c23.564 0 42.667-19.103 42.667-42.667v-497.778c10.868-8.205 20.239-17.577 28.185-28.087l0.259 525.864c0 39.274-31.838 71.111-71.111 71.111h-824.889c-39.274 0-71.111-31.838-71.111-71.111v-625.778c0-39.274 31.838-71.111 71.111-71.111h554.667v7.68c0.007 7.349 0.732 14.525 2.107 21.466l-556.774-0.702c-23.564 0-42.667 19.103-42.667 42.667z" />
<glyph unicode="&#xe91a;" glyph-name="hand-electricity-plug" d="M992.711 407.040c-9.645 12.864-24.857 21.098-41.992 21.098-7.006 0-13.69-1.376-19.797-3.874l-223.508-139.82h-189.724l-95.858 85.333h147.058c0.903-0.042 1.96-0.066 3.024-0.066 33.819 0 61.941 24.388 67.74 56.537-4.742 32.871-32.405 57.492-65.818 57.492-1.741 0-3.466-0.067-5.173-0.198l-318.351 0.014-240.071-240.356 159.004-222.436 149.902 149.902h455.111l217.884 174.080c8.133 8.003 13.172 19.129 13.172 31.432 0 12.020-4.81 22.916-12.61 30.869zM972.8 366.649l-209.351-167.538h-455.111l-135.396-134.542-125.724 175.787 215.040 214.756h306.631c31.573 0 42.382-21.333 42.667-28.444-6.112-16.755-21.908-28.502-40.448-28.502-0.781 0-1.556 0.021-2.326 0.062l-221.759-0.005 160.142-142.222h208.498l227.556 142.222c1.859 0.52 3.995 0.818 6.2 0.818 8.313 0 15.634-4.245 19.914-10.686 10.864-11.181 6.313-18.577 3.468-21.706zM398.222 723.627c0.421-57.047 44.395-103.691 100.296-108.347 2.873-17.386 10.096-32.725 20.692-45.087 17.961-18.465 43.194-29.995 71.119-29.995 2.465 0 4.908 0.090 7.328 0.266l56.565-0.019v28.444h-56.889c-1.88-0.173-4.066-0.271-6.275-0.271-19.676 0-37.529 7.804-50.634 20.486-6.265 7.233-10.772 16.194-12.721 26.073 55.044 6.284 97.635 52.326 98.074 108.405v44.418h28.444v28.444h-56.889v85.333h-28.444v-85.333h-113.778v85.333h-28.444v-85.333h-56.889v-28.444h28.444zM597.333 768v-44.373c-0.614-45.087-37.307-81.4-82.482-81.4-1.003 0-2.001 0.018-2.996 0.053-0.706-0.035-1.705-0.053-2.708-0.053-45.175 0-81.868 36.314-82.481 81.343l-0.001 44.431zM455.396 739.555h113.778v-28.444h-113.778v28.444z" />
<glyph unicode="&#xe923;" glyph-name="hand-circle-eurosign" d="M531.627 615.822c0.057 0 0.125 0 0.193 0 21.004 0 40.597 6.039 57.139 16.474l-15.518 23.917c-11.79-7.465-26.137-11.91-41.519-11.947-0.050 0-0.096 0-0.143 0-28.743 0-53.93 15.226-67.935 38.053l53.846 0.347v28.444h-64.853c-0.895 4.276-1.408 9.189-1.408 14.222s0.513 9.946 1.489 14.691l64.773-0.469v28.444h-54.613c13.973 23.662 39.267 39.334 68.237 39.538 0.126 0.001 0.241 0.001 0.356 0.001 17.050 0 32.831-5.435 45.704-14.668l16.262 23.485c-17.258 12.449-38.832 19.911-62.15 19.911-0.050 0-0.101 0-0.151 0-45.154-0.321-83.738-28.145-99.854-67.541l-28.707-0.725v-28.444h20.48c-0.136-2.041-0.213-4.425-0.213-6.827s0.077-4.786 0.23-7.149c0.138-5.028 0.649-10.13 1.497-15.117l-20.855 0.648v-28.444h28.444c16.685-39.279 54.756-66.413 99.216-66.844zM531.911 540.444c102.111 0 184.889 82.778 184.889 184.889s-82.778 184.889-184.889 184.889c-102.111 0-184.889-82.778-184.889-184.889s82.778-184.889 184.889-184.889zM531.911 881.778c86.402 0 156.444-70.043 156.444-156.444s-70.043-156.444-156.444-156.444c-86.402 0-156.444 70.043-156.444 156.444 0.162 86.337 70.108 156.283 156.429 156.444zM998.4 407.040c-9.645 12.864-24.857 21.098-41.992 21.098-7.006 0-13.69-1.376-19.797-3.874l-223.508-139.82h-189.724l-96.711 85.333h147.911c0.903-0.042 1.96-0.066 3.024-0.066 33.819 0 61.941 24.388 67.74 56.537-4.732 32.882-32.4 57.513-65.821 57.513-1.84 0-3.662-0.075-5.465-0.221l-318.056 0.015-256-270.791 191.147-190.862 133.973 148.764h455.111l215.324 174.080c8.845 8.091 14.372 19.685 14.372 32.569 0 11.469-4.379 21.916-11.557 29.758zM978.489 366.649l-210.489-167.538h-455.111l-122.311-135.68-150.471 149.902 227.556 241.778h307.2c31.573 0 42.382-21.333 42.667-28.444-6.112-16.755-21.908-28.502-40.448-28.502-0.781 0-1.556 0.021-2.326 0.062l-222.328-0.005 159.573-142.222h208.498l227.556 142.222c1.859 0.52 3.995 0.818 6.2 0.818 8.313 0 15.634-4.245 19.914-10.686 11.717-11.181 7.166-18.577 4.322-21.706z" />
<glyph unicode="&#xe924;" glyph-name="clock" d="M512 967.111c-282.77 0-512-229.23-512-512s229.23-512 512-512c282.77 0 512 229.23 512 512s-229.23 512-512 512zM995.556 455.111s0-2.276 0-3.413v6.258s0-2.844 0-2.844zM519.964 938.667v0zM525.938-28.445v85.333h-28.444v-85.333c-255.945 7.812-461.396 213.363-469.032 468.617l85.316 0.717v28.444h-85.333c7.66 256.066 213.267 461.673 468.616 469.316l0.717-85.316h28.444v85.333c256.066-7.66 461.673-213.267 469.316-468.616l-85.316-0.717v-28.444h85.333c-7.667-256.162-213.43-461.825-468.914-469.317zM511.431 447.431l-160.142 159.858-19.911-19.911 181.191-181.476 237.511 267.378-21.333 18.773-217.316-244.622z" />
<glyph unicode="&#xe927;" glyph-name="shield-checkmark-plus" d="M967.111 814.364l-2.276 7.964-452.836 116.338-451.982-116.338-3.129-7.964c0-5.689-150.756-582.827 449.707-842.809h5.404l5.689 2.56c52.982 22.413 97.843 46.121 140.408 73.123l-3.874 31.268c-40.751-27.836-87.435-54.057-136.383-76.149-244.773 103.456-389.27 270.14-435.35 493.998-9.761 45.492-15.352 97.755-15.352 151.324s5.59 105.834 16.219 156.24l428.644 106.302 429.511-111.218c9.765-45.491 15.358-97.755 15.358-151.324s-5.592-105.832-16.225-156.237c-12.487-59.453-33.323-116.524-61.155-169.335l1.72-9.219h23.893c50.068 98.952 79.392 215.718 79.392 339.333 0 57.444-6.333 113.41-18.338 167.236zM938.667 256h-113.778v113.778h-113.778v-113.778h-113.778v-113.778h113.778v-113.778h113.778v113.778h113.778zM910.222 170.667h-113.778v-113.778h-56.889v113.778h-113.778v56.889h113.778v113.778h56.889v-113.778h113.778zM441.173 335.36l-123.733 124.018 20.196 19.911 103.538-103.538 246.044 245.76 19.911-19.911-265.956-266.24z" />
<glyph unicode="&#xe929;" glyph-name="shield-checkmark" d="M512-28.445l-5.689 2.56c-600.178 257.422-449.422 834.56-449.422 840.249l2.276 7.964 452.836 116.338 452.551-116.622 2.276-7.964c0.284-5.404 151.324-582.542-449.138-842.524zM83.342 799.004c-9.761-45.492-15.352-97.755-15.352-151.324s5.59-105.834 16.219-156.24c44.359-218.942 188.857-385.626 427.79-491.44 238.933 104.676 383.431 271.076 429.796 494.933 9.765 45.491 15.358 97.755 15.358 151.324s-5.592 105.832-16.225 156.237l-428.928 107.727zM441.173 335.36l-123.733 124.018 20.196 19.911 103.538-103.538 246.044 245.76 19.911-19.911-265.956-266.24z" />
<glyph unicode="&#xe92a;" glyph-name="calculator" d="M142.222 369.778h85.333v-28.444h-85.333v28.444zM327.111 284.444c-39.274 0-71.111 31.838-71.111 71.111s31.838 71.111 71.111 71.111c39.274 0 71.111-31.838 71.111-71.111s-31.838-71.111-71.111-71.111zM327.111 398.222c-23.564 0-42.667-19.103-42.667-42.667s19.103-42.667 42.667-42.667c23.564 0 42.667 19.103 42.667 42.667s-19.103 42.667-42.667 42.667zM455.68 768h255.431v-28.444h-255.431v28.444zM142.222 768h85.333v-28.444h-85.333v28.444zM675.271 369.778h-220.16v-28.444h186.596c10.128 10.2 21.093 19.54 32.792 27.919zM568.889 162.987h-452.551c-0.085 0-0.185-0.001-0.285-0.001-32.576 0-59.003 26.327-59.164 58.865v657.651c0 0 0 0 0 0.001 0 32.676 26.489 59.164 59.164 59.164 0.1 0 0.2 0 0.3-0.001h620.642c0.084 0 0.184 0.001 0.284 0.001 32.676 0 59.164-26.489 59.164-59.164 0 0 0 0 0-0.001v-462.791c8.311 1.203 18.147 2.021 28.125 2.269l0.319 460.522c-0.162 48.42-39.451 87.609-87.893 87.609 0 0 0 0 0 0h-620.658c0 0 0 0 0 0-48.442 0-87.731-39.189-87.893-87.593v-657.651c0 0 0 0 0 0 0-48.385 39.224-87.609 87.609-87.609 0.1 0 0.2 0 0.3 0.001h455.096c-1.292 8.326-2.211 18.243-2.549 28.307zM327.111 682.667c-39.274 0-71.111 31.838-71.111 71.111s31.838 71.111 71.111 71.111c39.274 0 71.111-31.838 71.111-71.111s-31.838-71.111-71.111-71.111zM327.111 796.444c-23.564 0-42.667-19.103-42.667-42.667s19.103-42.667 42.667-42.667c23.564 0 42.667 19.103 42.667 42.667s-19.103 42.667-42.667 42.667zM625.778 568.889h85.333v-28.444h-85.333v28.444zM142.222 568.889h227.556v-28.444h-227.556v28.444zM497.778 483.555c-39.274 0-71.111 31.838-71.111 71.111s31.838 71.111 71.111 71.111c39.274 0 71.111-31.838 71.111-71.111s-31.838-71.111-71.111-71.111zM497.778 597.333c-23.564 0-42.667-19.103-42.667-42.667s19.103-42.667 42.667-42.667c23.564 0 42.667 19.103 42.667 42.667s-19.103 42.667-42.667 42.667zM723.058 81.067l16.498-42.667c-39.707 27.669-65.366 73.108-65.366 124.54 0 25.032 6.078 48.645 16.839 69.442l-0.397-0.844c25.827 48.883 76.335 81.628 134.491 81.628 3.22 0 6.417-0.1 9.587-0.298l1.557 0.022-6.542 28.444c-1.626 0.053-3.539 0.083-5.458 0.083-69.346 0-129.536-39.203-159.616-96.656l-0.472-0.991c-12.422-23.836-19.708-52.055-19.708-81.975 0-61.829 31.115-116.39 78.541-148.88l-40.344-12.914 9.387-26.738 87.324 31.004-31.004 87.324zM995.556 217.6c-10.752 34.404-30.542 63.386-56.601 85.1l40.957 9.62-6.258 28.444-90.169-20.196 4.267-18.489 15.076-74.524 28.444 6.258-10.24 44.942c33.992-28.014 55.496-70.121 55.496-117.25 0-82.241-65.484-149.188-147.155-151.545l-10.742-0.005 10.24-28.444c97.525 2.464 175.644 82.109 175.644 179.999 0 20.055-3.279 39.343-9.329 57.359z" />
<glyph unicode="&#xe92b;" glyph-name="printer" d="M227.556 938.667h426.667v-142.222h142.222v-56.889h28.444v227.556h-625.778v-227.556h28.444zM682.667 924.444l99.556-99.556h-99.556zM796.444 850.773l-87.893 87.893h87.893zM892.018 682.667h-760.036c-0.085 0-0.186 0.001-0.287 0.001-41.116 0-74.485-33.17-74.807-74.21v-466.235h142.222v28.444h-113.778v437.76c0.321 25.361 20.954 45.796 46.361 45.796 0.101 0 0.202 0 0.303-0.001h760.020c0.086 0.001 0.187 0.001 0.288 0.001 25.407 0 46.040-20.436 46.361-45.766v-437.79h-113.778v-28.444h142.222v466.204c-0.322 41.071-33.691 74.241-74.807 74.241-0.101 0-0.201 0-0.302-0.001zM170.667 369.778h682.667v-28.444h-682.667v28.444zM341.333 227.555h341.333v-28.444h-341.333v28.444zM341.333 142.222h341.333v-28.444h-341.333v28.444zM341.333 56.889h341.333v-28.444h-341.333v28.444zM739.556-28.445h-455.111v312.889h-28.444v-341.333h512v341.333h-28.444v-312.889z" />
<glyph unicode="&#xe92c;" glyph-name="wallet" d="M544.996 768l211.342 107.52c5.518 2.791 12.029 4.426 18.922 4.426 16.456 0 30.737-9.317 37.854-22.963l45.908-88.983h31.858l-51.769 101.831c-12.036 23.179-35.859 38.741-63.317 38.741-11.771 0-22.875-2.86-32.653-7.924l-259.586-132.649zM952.889 711.111h-881.778c-39.274 0-71.111-31.838-71.111-71.111v-568.889c0-39.274 31.838-71.111 71.111-71.111h881.778c39.274 0 71.111 31.838 71.111 71.111v568.889c0 39.274-31.838 71.111-71.111 71.111zM952.889 28.444h-881.778c-23.564 0-42.667 19.103-42.667 42.667v568.889c0 23.564 19.103 42.667 42.667 42.667h881.778c23.564 0 42.667-19.103 42.667-42.667v-156.444h-284.444v-227.556h284.444v-184.889c0-23.564-19.103-42.667-42.667-42.667zM995.556 455.111v-170.667h-256v170.667zM881.778 369.778c0-15.709-12.735-28.444-28.444-28.444s-28.444 12.735-28.444 28.444c0 15.709 12.735 28.444 28.444 28.444s28.444-12.735 28.444-28.444z" />
<glyph unicode="&#xe92d;" glyph-name="mobile" d="M312.889 739.555h170.667v-28.444h-170.667v28.444zM312.889 654.222h369.778v-28.444h-369.778v28.444zM312.889 568.889h369.778v-28.444h-369.778v28.444zM765.44 904.533c-4.836 5.689-54.329 62.578-267.378 62.578s-262.542-56.889-267.378-62.578l-3.129-3.698v-891.449l2.844-3.698c5.12-5.689 54.044-62.578 267.662-62.578s262.542 56.889 267.378 62.578l2.844 3.698v891.449zM498.062 938.667c172.089 0 229.262-38.116 241.778-48.64v-36.693h-483.84v36.693c13.369 10.809 70.542 48.64 242.062 48.64zM256 824.889h483.556v-682.667h-483.556zM497.778-28.445c-172.089 0-229.262 38.116-241.778 48.64v93.582h483.556v-93.582c-12.231-10.809-68.551-48.64-241.493-48.64zM512 42.667c0-7.855-6.368-14.222-14.222-14.222s-14.222 6.368-14.222 14.222c0 7.855 6.368 14.222 14.222 14.222s14.222-6.368 14.222-14.222z" />
<glyph unicode="&#xe92e;" glyph-name="mobile-sms" d="M426.667 42.667c0-7.855-6.368-14.222-14.222-14.222s-14.222 6.368-14.222 14.222c0 7.855 6.368 14.222 14.222 14.222s14.222-6.368 14.222-14.222zM654.222 227.555v-85.333h-483.556v682.667h483.556v-85.333h28.444v161.28l-2.844 3.698c-4.551 5.689-54.044 62.578-267.093 62.578s-262.542-56.889-267.378-62.578l-3.129-3.698v-891.449l2.844-3.698c5.12-5.689 54.044-62.578 267.662-62.578s262.542 56.889 267.378 62.578l2.844 3.698v218.169zM170.667 890.027c12.8 10.809 69.404 48.64 242.062 48.64s229.262-38.116 241.493-48.64v-36.693h-483.556zM654.222 20.195c-12.516-10.809-68.836-48.64-241.778-48.64s-228.978 38.116-241.778 48.64v93.582h483.556zM867.84 284.444h-426.667c-0.084 0-0.184-0.001-0.284-0.001-39.274 0-71.111 31.838-71.111 71.111 0 0 0 0 0 0.001v256c0 39.274 31.838 71.111 71.111 71.111h426.667c39.274 0 71.111-31.838 71.111-71.111v-256c0 0 0 0 0-0.001 0-39.174-31.676-70.949-70.811-71.11zM441.173 654.222c-0.084 0.001-0.184 0.001-0.284 0.001-23.564 0-42.667-19.103-42.667-42.667 0 0 0-0.001 0-0.001v-256c0-23.564 19.103-42.667 42.667-42.667h426.667c23.564 0 42.667 19.103 42.667 42.667v256c0 23.564-19.103 42.667-42.667 42.667zM530.204 538.738c-9.327 2.691-20.072 4.339-31.168 4.549-23.161 0.002-35.108-9.669-35.108-25.883 0-37.831 79.644-24.462 79.644-81.636 0-28.444-21.902-50.347-62.293-50.347-0.262-0.002-0.572-0.002-0.882-0.002-13.518 0-26.649 1.66-39.199 4.788l1.112 22.805c11.904-4.587 25.674-7.291 40.062-7.395 21.093 0 36.453 8.249 36.453 28.444 0 39.822-79.076 25.884-79.076 81.636 0 28.444 22.187 47.218 60.587 47.218 10.127-0.107 19.945-1.138 29.46-3.011zM735.573 387.698l-13.653 100.978c-2.56 20.48-4.267 37.831-4.836 50.062v0c-2.276-10.24-5.973-22.471-10.524-36.978l-39.822-113.778h-21.618l-37.831 108.373c-4.551 13.653-9.956 30.72-12.8 42.667v0c0-14.507-1.991-32.142-3.982-51.2l-11.378-99.84h-23.324l22.187 172.942h32.142l38.4-108.942c2.92-8.167 5.86-18.551 8.194-29.163l0.34-1.841c2.276 10.524 5.12 21.618 8.249 31.004l38.4 108.942h33.28l23.324-172.942zM862.436 538.738c-9.327 2.691-20.072 4.339-31.168 4.549-23.161 0.002-35.108-9.669-35.108-25.883 0-37.831 79.644-24.462 79.644-81.636 0-28.444-21.902-50.347-62.293-50.347-0.262-0.002-0.572-0.002-0.882-0.002-13.518 0-26.649 1.66-39.199 4.788l1.112 22.805c11.904-4.587 25.674-7.291 40.062-7.395 21.093 0 36.453 8.249 36.453 28.444 0 39.822-79.076 25.884-79.076 81.636 0 28.444 22.187 47.218 60.587 47.218 10.127-0.107 19.945-1.138 29.46-3.011z" />
<glyph unicode="&#xe92f;" glyph-name="mobile-app" d="M426.667 42.667c0-7.855-6.368-14.222-14.222-14.222s-14.222 6.368-14.222 14.222c0 7.855 6.368 14.222 14.222 14.222s14.222-6.368 14.222-14.222zM682.667 739.555v161.28l-2.844 3.698c-4.551 5.689-54.044 62.578-267.093 62.578s-262.542-56.889-267.378-62.578l-3.129-3.698v-891.449l2.844-3.698c5.12-5.689 54.044-62.578 267.662-62.578s262.542 56.889 267.378 62.578l2.844 3.698v218.169h-28.729v-85.333h-483.556v682.667h483.556v-85.333zM654.222 113.778v-93.582c-12.516-10.809-68.836-48.64-241.778-48.64s-228.978 38.116-241.778 48.64v93.582zM170.667 853.333v36.693c12.8 10.809 69.404 48.64 242.062 48.64s229.262-38.116 241.493-48.64v-36.693zM810.951 284.444h-256c-0.084 0-0.184-0.001-0.284-0.001-39.274 0-71.111 31.838-71.111 71.111 0 0 0 0 0 0.001v256c0 39.274 31.838 71.111 71.111 71.111h256c39.274 0 71.111-31.838 71.111-71.111v-256c0 0 0 0 0-0.001 0-39.174-31.676-70.949-70.811-71.11zM554.951 654.222c-0.084 0.001-0.184 0.001-0.284 0.001-23.564 0-42.667-19.103-42.667-42.667 0 0 0-0.001 0-0.001v-256c0-23.564 19.103-42.667 42.667-42.667h256c23.564 0 42.667 19.103 42.667 42.667v256c0 23.564-19.103 42.667-42.667 42.667zM773.12 369.778l23.324 9.956-87.609 203.378c-3.38 7.845-11 13.259-19.897 13.369-0.544 0.050-1.161 0.078-1.784 0.078-8.413 0-15.625-5.145-18.661-12.459l-99.605-203.227 22.756-11.093 42.098 85.333h102.4zM645.973 480.711l42.098 85.333 37.262-85.333z" />
<glyph unicode="&#xe930;" glyph-name="chip" d="M874.098 938.667h-724.196c-67.014-0.161-121.296-54.444-121.458-121.442v-724.211c0.161-67.014 54.444-121.296 121.442-121.458h724.211c67.014 0.161 121.296 54.444 121.458 121.442v724.211c-0.161 67.014-54.444 121.296-121.442 121.458zM967.111 817.209v-191.431h-284.444v284.444h191.147c0 0 0 0 0 0 51.427 0 93.136-41.609 93.297-92.998zM369.778 625.778v284.444h284.444v-284.444zM56.889 93.013v191.431h284.444v-284.444h-191.431c-51.305 0.161-92.852 41.708-93.013 92.998zM654.222 284.444v-284.444h-284.444v284.444zM967.111 93.013c-0.161-51.305-41.708-92.852-92.998-93.013h-191.447v284.444h284.444zM56.889 312.889v504.32c0.161 51.305 41.708 92.852 92.998 93.013h191.447v-312.889h625.778v-284.444zM539.307 450.275h2.276v-5.973h-2.276v5.973z" />
<glyph unicode="&#xe931;" glyph-name="clock-phone-24" d="M383.147 424.391v-26.169h113.778v31.289c-28.444 0-52.622 0-68.267 0v0l20.196 20.48c32.142 32.427 41.813 50.062 41.813 74.24s-17.636 49.493-56.889 49.493c-16.599-0.113-32.242-4.093-46.108-11.082l0.597-30.447c11.047 6.402 24.187 10.437 38.212 11.086 1.302 0.184 2.585 0.286 3.893 0.286 13.667 0 24.747-11.079 24.747-24.747 0-0.198-0.002-0.396-0.007-0.593 0.001-17.891-8.817-30.122-46.364-68.237zM578.844 570.595l-63.147-105.813 3.129-28.444h72.533v-38.116h32.142v39.822h23.040v28.444h-23.040v104.107zM591.644 466.773c-7.964 0-31.858 0-43.236 0l42.951 71.396zM938.667 201.387v-28.444c52.585 79.126 83.905 176.332 83.905 280.853 0 282.77-229.23 512-512 512-104.593 0-201.861-31.363-282.913-85.197l58.777 1.179c61.232 33.533 133.732 54.291 210.838 56.868l0.789-85.312h28.444v85.333c255.945-7.812 461.396-213.363 469.032-468.617l-85.316-0.717v-28.444h85.333c-2.69-77.798-23.436-150.185-58.147-213.864zM540.444 180.338c-20.764 2.276-96.996 17.636-190.862 111.218s-108.942 170.667-111.502 190.862l103.253 105.244-83.058 237.227h-118.898l-82.489-83.058c-89.031-113.778-1.991-415.573 168.96-586.524 119.182-119.182 300.089-193.422 436.907-193.138 3.722-0.22 8.075-0.346 12.458-0.346 46.704 0 90.076 14.266 125.996 38.679l80.569 81.703v119.182l-236.942 83.058zM853.333 180.338v-87.324l-71.964-71.964c-95.004-73.387-366.649-15.644-535.893 153.6-160.142 160.142-245.476 447.431-167.253 548.409l72.818 73.387h87.324l71.396-201.387-101.262-100.978v-5.973c0-3.982 1.422-97.849 120.32-216.462s212.196-120.036 216.462-120.036h5.973l101.262 100.693z" />
<glyph unicode="&#xe932;" glyph-name="attention" d="M989.867 65.422l-438.613 822.329c-7.945 13.698-22.541 22.763-39.253 22.763s-31.308-9.065-39.137-22.546l-438.729-822.261c-3.693-6.235-5.875-13.743-5.875-21.76s2.182-15.525 5.985-21.961c7.704-13.16 21.982-21.993 38.323-21.993 0.288 0 0.576 0.003 0.864 0.008l877.184-0.001c0.112-0.001 0.244-0.002 0.376-0.002 16.385 0 30.71 8.825 38.48 21.98 3.871 6.46 6.094 14.005 6.094 22.070 0 7.866-2.114 15.238-5.806 21.578zM964.836 36.978c-2.873-4.802-8.047-7.967-13.959-7.967-0.092 0-0.185 0.001-0.277 0.002h-877.213c-0.030 0-0.067 0-0.103 0-5.958 0-11.179 3.159-14.079 7.893-1.362 2.268-2.144 4.919-2.144 7.752s0.782 5.484 2.141 7.748l438.291 821.123c3.016 4.76 8.256 7.873 14.222 7.873s11.206-3.114 14.182-7.805l439.223-822.113c1.297-2.155 2.065-4.757 2.065-7.538s-0.767-5.383-2.102-7.605zM483.84 682.667h56.889v-398.222h-56.889v398.222zM569.173 170.667c0-31.419-25.47-56.889-56.889-56.889s-56.889 25.47-56.889 56.889c0 31.419 25.47 56.889 56.889 56.889s56.889-25.47 56.889-56.889z" />
<glyph unicode="&#xe933;" glyph-name="car-circle-eurosign" d="M298.667 256c-0.165 4.574-2.466 8.578-5.931 11.064l-39.58 28.474-2.844 1.707-104.96 44.089c-1.599 0.693-3.461 1.096-5.417 1.096-3.481 0-6.664-1.276-9.107-3.387-13.95-13.149-24.557-29.726-30.481-48.388-5.418-11.367-8.457-23.794-8.457-36.931 0-10.312 1.873-20.187 5.297-29.302 2.976-4.933 8.386-8.846 14.76-9.932l118.17-14.24h1.707c0.060-0.001 0.13-0.001 0.2-0.001 3.382 0 6.488 1.18 8.929 3.151l52.595 42.646c2.908 2.418 4.828 5.938 5.117 9.909zM227.556 227.555l-106.951 12.8c-0.073 1.368-0.114 2.969-0.114 4.581 0 12.391 2.445 24.21 6.879 35.002 3.461 10.972 8.996 21.009 16.117 29.697l94.309-38.56 23.040-16.498zM783.076 202.24c2.414-1.95 5.52-3.13 8.902-3.13 0.070 0 0.141 0.001 0.211 0.002h1.696l118.613 14.222c6.259 1.302 11.427 5.165 14.451 10.42 3.29 8.646 5.163 18.521 5.163 28.833 0 13.137-3.040 25.565-8.454 36.617-5.928 18.977-16.535 35.554-30.446 48.664-2.482 2.148-5.665 3.425-9.146 3.425-1.956 0-3.818-0.403-5.508-1.131l-104.869-42.632-2.844-1.707-39.253-28.444c-3.362-2.627-5.502-6.681-5.502-11.236s2.141-8.609 5.471-11.212zM785.92 271.929l95.858 38.4c6.988-8.531 12.522-18.567 16.035-29.509 4.389-10.821 6.834-22.64 6.834-35.031 0-1.611-0.041-3.213-0.123-4.804l-108.080-13.43-33.28 28.444zM242.631 483.555l-13.369-28.444h569.173l-13.369 28.444h-542.436zM697.173 227.555h-366.364l-34.418-28.444h433.209l-32.427 28.444zM286.151 227.555h-1.707v-1.422l1.707 1.422zM341.333 284.444h341.333v-28.444h-341.333v28.444zM917.049 512c-2.257-0.319-4.278-1.125-6.023-2.307l-31.239-21.301c-5.689 12.8-14.222 31.289-23.893 52.053-5.689 0-11.378 0-17.067 0h-13.938c13.369-28.444 26.169-56.889 36.409-79.076 1.719-3.857 4.992-6.758 9.002-7.939 1.241-0.362 2.551-0.555 3.906-0.555 2.815 0 5.434 0.834 7.625 2.269l42.329 28.412c6.352 1.312 13.653 2.063 21.128 2.063 16.584 0 32.305-3.696 46.384-10.309 1.939-1.767 3.599-4.921 3.599-8.462 0-0.026 0-0.052 0-0.078 0.050-0.629 0.079-1.367 0.079-2.111 0-7.419-2.84-14.175-7.493-19.239-5.008-3.787-11.366-6.079-18.259-6.079-0.976 0-1.94 0.046-2.892 0.136l-14.101-0.009c-0.017 0-0.038 0-0.058 0-2.255 0-4.388-0.525-6.283-1.459l-28.361-14.185c-4.635-2.408-7.746-7.172-7.746-12.662 0-2.91 0.874-5.616 2.374-7.87l54.581-80.446v-209.067h-910.222v209.067l54.613 81.636c1.467 2.202 2.341 4.908 2.341 7.818 0 5.491-3.111 10.254-7.667 12.625l-28.523 14.26c-1.811 0.897-3.944 1.422-6.2 1.422-0.020 0-0.041 0-0.061 0h-14.504c-0.224-0.006-0.488-0.009-0.753-0.009-7.249 0-13.923 2.465-19.228 6.604-5.233 5.119-8.522 12.335-8.522 20.318 0 0.639 0.021 1.273 0.063 1.902-0.036 0.248-0.054 0.636-0.054 1.028 0 3.899 1.783 7.382 4.579 9.678 10.638 4.347 22.956 6.86 35.861 6.86 9.108 0 17.925-1.252 26.286-3.593l47.102-28.281c2.080-1.26 4.594-2.006 7.282-2.006 5.693 0 10.605 3.345 12.877 8.176 21.37 46.736 81.672 172.745 103.575 196.922l1.707 2.276c6.542 4.551 45.227 22.187 244.338 22.187 43.236 0 78.791 0 108.089-2.276-3.785 7.662-7.637 17.070-10.886 26.755-28.367 3.965-59.941 3.965-97.203 3.965-231.253 0-263.964-22.756-269.084-36.124-33.776-52.56-66.935-113.796-95.606-177.489l-40.643 12.796-3.982 1.707c-5.973 0-60.302 12.516-87.324-9.387-9.41-7.569-15.38-19.083-15.38-31.991 0-0.453 0.007-0.905 0.022-1.355-0.038-0.695-0.059-1.586-0.059-2.482 0-15.656 6.324-29.835 16.557-40.121 9.984-8.866 23.208-14.283 37.698-14.283 0.946 0 1.887 0.023 2.822 0.069l10.677-0.005 11.093-5.404-48.071-71.964c-1.428-2.18-2.278-4.851-2.278-7.72 0-0.086 0.001-0.172 0.002-0.257v-341.32c0-2.56 3.413-42.667 71.111-42.667 61.156 0 71.111 37.831 71.111 39.538 0.054 0.469 0.085 1.013 0.085 1.564s-0.031 1.095-0.091 1.63l0.006 14.156h682.667v-13.084c-0.003-0.178-0.005-0.389-0.005-0.599 0-9.192 3.695-17.52 9.68-23.582 14.352-12.412 33.203-19.976 53.82-19.976 2.682 0 5.334 0.128 7.95 0.378l-0.333-0.026c1.733-0.138 3.753-0.217 5.791-0.217 19.624 0 37.542 7.306 51.182 19.347 7.125 7.22 11.579 17.25 11.579 28.319 0 0.019 0 0.037 0 0.056v336.495c0.001 0.073 0.002 0.158 0.002 0.244 0 2.869-0.85 5.54-2.311 7.774l-48.038 71.91 11.093 5.689h9.387c1.837-0.21 3.967-0.331 6.124-0.331 14.481 0 27.697 5.41 37.74 14.32 10.505 10.020 17.074 24.2 17.074 39.915 0 0.95-0.024 1.894-0.071 2.832-0.016 12.060-5.513 22.964-14.157 30.255-27.366 22.236-85.962 13.987-92.789 12.28zM967.111-9.956c0-7.111-10.524-18.489-42.667-18.489s-42.667 10.24-42.667 14.222v28.444c0 7.855-6.368 14.222-14.222 14.222h-711.111c-7.855 0-14.222-6.368-14.222-14.222v-25.884c-1.991-3.982-10.524-16.782-42.667-16.782s-42.667 10.24-42.667 14.222v99.556h910.222zM838.827 672.711c0.057 0 0.125 0 0.193 0 21.004 0 40.597 6.039 57.139 16.474l-14.38 23.633c-11.79-7.465-26.137-11.91-41.519-11.947-0.252-0.003-0.537-0.004-0.823-0.004-28.862 0-54.138 15.352-68.108 38.336l53.561 0.353v28.444h-64.853c-0.874 4.431-1.39 9.54-1.422 14.764-0.18 2.072-0.283 4.45-0.283 6.853s0.103 4.782 0.304 7.133l66.254-0.306v28.444h-54.329c13.973 23.662 39.267 39.334 68.237 39.538 0.126 0.001 0.241 0.001 0.356 0.001 17.050 0 32.831-5.435 45.704-14.668l16.262 23.485c-17.258 12.449-38.832 19.911-62.15 19.911-0.050 0-0.101 0-0.151 0-44.814-0.683-82.995-28.402-99.001-67.542l-28.707-0.725v-28.444h20.48c-0.136-2.041-0.213-4.425-0.213-6.827s0.077-4.786 0.23-7.149c0.138-5.028 0.649-10.13 1.497-15.117l-21.993 0.648v-28.444h28.444c16.685-39.279 54.756-66.413 99.216-66.844zM839.111 597.333c102.111 0 184.889 82.778 184.889 184.889s-82.778 184.889-184.889 184.889c-102.111 0-184.889-82.778-184.889-184.889s82.778-184.889 184.889-184.889zM839.111 938.667c86.402 0 156.444-70.043 156.444-156.444s-70.043-156.444-156.444-156.444c-86.402 0-156.444 70.043-156.444 156.444 0.162 86.337 70.108 156.283 156.429 156.444z" />
<glyph unicode="&#xe934;" glyph-name="fleet" d="M1014.044 559.218c6.144 5.954 9.958 14.282 9.958 23.501 0 0.138-0.001 0.276-0.003 0.413 0 40.655-71.111 42.646-85.333 42.646-0.017 0-0.038 0-0.058 0-2.255 0-4.388-0.525-6.283-1.459l-16.983-8.496c-16.782 27.022-62.009 95.289-80.213 119.751-5.404 3.982-41.244 32.427-209.351 32.427s-203.662-28.444-210.489-34.133-20.764-30.151-35.271-51.2h34.418c9.387 14.222 17.636 26.169 22.187 32.142 0 0 32.996 24.747 189.724 24.747 151.893 0 187.449-23.040 188.018-23.040v0c21.333-26.738 83.627-125.724 85.333-126.578 2.557-4.028 6.994-6.663 12.047-6.663 2.351 0 4.568 0.57 6.522 1.58l25.236 12.763c28.444 0 53.476-8.249 53.476-14.222 0-1.391-0.666-2.627-1.696-3.406-13.459-7.323-29.461-11.624-46.467-11.624-3.574 0-7.104 0.19-10.58 0.56 0.263-0.030 0.063-0.026-0.137-0.026-7.855 0-14.222-6.368-14.222-14.222 0-0.004 0-0.008 0-0.012v-28.444c0-3.218 1.069-6.186 2.87-8.569l40.365-53.155v-151.609h-113.778v-28.444h113.778v-71.964c-0.007-2.668-1.093-5.081-2.844-6.826-6.289-4.183-14.016-6.675-22.325-6.675-1.153 0-2.294 0.048-3.423 0.142-0.923-0.118-2.167-0.179-3.425-0.179-8.39 0-16.143 2.731-22.416 7.353-1.656 1.635-2.748 4.022-2.748 6.665 0 0.131 0.003 0.262 0.008 0.391l-0.001 28.426c0 7.855-6.368 14.222-14.222 14.222h-42.382v-28.444h28.444v-12.8c-0.084-0.942-0.132-2.038-0.132-3.145 0-9.76 3.724-18.651 9.829-25.328 10.799-9.858 25.27-15.914 41.155-15.914 2.126 0 4.227 0.108 6.297 0.32l-0.26-0.022c1.482-0.131 3.206-0.205 4.947-0.205 15.952 0 30.444 6.253 41.158 16.442 6.657 6.751 10.784 16.062 10.784 26.336 0 0.033 0 0.066 0 0.098v255.995c0 3.218-1.069 6.186-2.87 8.569l-39.796 53.155v9.387c0.815-0.024 1.773-0.037 2.735-0.037 21.932 0 42.217 7.052 58.711 19.011zM938.667 384v85.333c0 7.855-6.368 14.222-14.222 14.222-1.419 0-2.79-0.208-4.083-0.595l-44.273-12.49c3.068-8.418 5.016-18.143 5.399-28.268l28.45 8.072v-52.053h-36.978c-4.97-11.040-11.573-20.466-19.619-28.437l72.526-0.007c7.219 0.747 12.8 6.797 12.8 14.151 0 0.025 0 0.050 0 0.075zM873.244 568.889l-28.444 28.444h-142.222l19.342-28.444zM238.080 308.622c-1.628 1.935-3.744 3.409-6.16 4.237l-99.654 28.474c-1.209 0.379-2.598 0.598-4.039 0.598-3.204 0-6.155-1.081-8.509-2.898-3.437-2.598-5.657-6.717-5.657-11.354v-85.333c0-7.855 6.368-14.222 14.222-14.222h85.333c0.073-0.001 0.158-0.002 0.244-0.002 2.869 0 5.54 0.85 7.774 2.311l42.612 28.411c3.882 2.581 6.405 6.937 6.405 11.881 0 3.91-1.577 7.451-4.131 10.022zM209.351 256h-67.129v52.338l77.938-22.187 13.653-13.653zM306.062 256l-34.133-28.16v-0.284h309.191l-34.418 28.444h-240.64zM622.080 312.889c-2.464-0.71-4.574-1.992-6.256-3.696l-28.446-28.446c-2.552-2.57-4.13-6.111-4.13-10.021 0-4.945 2.524-9.3 6.353-11.849l42.719-28.477c2.18-1.428 4.851-2.278 7.72-2.278 0.086 0 0.172 0.001 0.257 0.002h85.32c7.855 0 14.222 6.368 14.222 14.222v85.333c0 4.637-2.219 8.756-5.653 11.352-2.357 1.819-5.308 2.9-8.512 2.9-1.441 0-2.831-0.219-4.138-0.625zM711.111 256h-66.56l-24.747 16.498 13.653 13.653 77.653 22.187zM313.173 312.889h227.556v-28.444h-227.556v28.444zM739.556 483.555c-0.017 0-0.038 0-0.058 0-2.255 0-4.388-0.525-6.283-1.459l-16.983-8.496c-17.067 27.022-61.44 95.858-80.498 119.751-5.12 3.982-40.96 32.427-209.067 32.427s-203.662-28.444-210.489-34.133c-15.36-20.196-61.44-91.022-79.076-118.329l-17.067 8.533c-1.809 0.999-3.952 1.621-6.232 1.706-14.248 0.001-85.359-1.99-85.359-42.666 0.011-8.699 3.603-16.556 9.38-22.18 17.078-12.452 38.471-19.918 61.607-19.918 0.044 0 0.087 0 0.131 0l-0.007-9.956-39.538-53.191c-1.776-2.347-2.844-5.316-2.844-8.533v-256c-0.284-14.222 11.947-42.667 56.604-42.667 1.761-0.212 3.8-0.334 5.868-0.334 25.493 0 46.683 18.427 50.975 42.688l0.046 14.534h512v-12.8c-0.084-0.942-0.132-2.038-0.132-3.145 0-9.76 3.724-18.651 9.829-25.328 10.799-9.858 25.27-15.914 41.155-15.914 2.126 0 4.227 0.108 6.297 0.32l-0.26-0.022c1.482-0.131 3.206-0.205 4.947-0.205 15.952 0 30.444 6.253 41.158 16.442 6.657 6.751 10.784 16.062 10.784 26.336 0 0.033 0 0.066 0 0.098v255.995c0 3.218-1.069 6.186-2.87 8.569l-39.796 53.155v9.387c0.037 0 0.080 0 0.124 0 23.137 0 44.53 7.466 61.902 20.12 5.494 5.386 9.092 13.224 9.092 21.902 0 0.227-0.002 0.453-0.007 0.678 0.001 40.642-70.826 42.633-85.333 42.633zM768 70.258c-0.007-2.668-1.093-5.081-2.844-6.826-7.351-4.286-16.18-6.816-25.6-6.816s-18.25 2.53-25.846 6.948c-1.514 1.576-2.606 3.964-2.606 6.606 0 0.131 0.003 0.262 0.008 0.391l-0.001 28.426c0 7.855-6.368 14.222-14.222 14.222h-540.444c-7.855 0-14.222-6.368-14.222-14.222v-26.169c0-2.844-4.267-16.498-28.444-16.498s-28.444 12.231-28.444 14.222v71.68h682.667zM739.556 426.667v0c-7.855 0-14.222-6.368-14.222-14.222v-28.444c0-3.218 1.069-6.186 2.87-8.569l39.796-53.155v-151.609h-682.667v151.609l39.822 53.191c1.776 2.347 2.844 5.316 2.844 8.533v28.444c0 7.855-6.368 14.222-14.222 14.222v0c-1.844-0.126-3.996-0.197-6.165-0.197-18.78 0-36.306 5.369-51.127 14.655 0.403 5.738 26.003 13.418 53.879 13.986l25.316-12.8c1.818-0.905 3.96-1.435 6.226-1.435 5.008 0 9.411 2.588 11.945 6.5s66.594 103.309 82.807 125.211c0 0 32.996 24.747 189.724 24.747 151.893 0 187.449-23.040 188.018-23.040v0c21.333-26.738 83.627-125.724 85.333-126.578 2.557-4.028 6.994-6.663 12.047-6.663 2.351 0 4.568 0.57 6.522 1.58l25.236 12.763c28.444 0 53.476-8.249 52.338-16.213-14.655-7.976-32.094-12.666-50.629-12.666-2.002 0-3.991 0.055-5.966 0.163zM645.689 455.111h-435.484l-28.444-28.444h492.373l-28.444 28.444z" />
<glyph unicode="&#xe935;" glyph-name="globe-visa-coins" d="M636.587 256h-39.253v-1.991c25.055-3.999 45.764-19.637 56.687-41.093l-8.047 35.973c0.284 4.551-3.698 7.111-9.387 7.111zM659.911 199.111l-2.844 8.533c-8.334 14.679-20.225 26.478-34.532 34.469l22.301-71.447h26.738l39.538 83.342h-26.738zM705.138 171.804h25.316l15.644 83.058h-25.316l-15.644-83.058zM775.68 188.018c-0.492-0.015-1.070-0.024-1.65-0.024-7.818 0-15.268 1.577-22.048 4.43l-3.039-0.14-3.413-18.489c7.97-2.716 17.152-4.285 26.7-4.285 0.614 0 1.226 0.006 1.836 0.019 26.647-0.002 43.713 11.092 44.282 28.443 0 9.387-6.827 16.213-21.333 22.187-8.818 4.267-14.507 6.827-14.507 10.524s4.836 7.396 14.507 7.396c0.381 0.011 0.83 0.017 1.281 0.017 6.184 0 12.099-1.154 17.54-3.259l1.659 0.113 3.413 17.92c-6.491 2.345-13.982 3.701-21.79 3.701-0.239 0-0.479-0.001-0.717-0.004-24.71 0-42.346-11.093-42.346-28.444 0-11.662 12.231-18.489 21.902-22.187s13.084-6.827 13.084-10.524-7.964-7.396-15.36-7.396zM853.333 184.32h31.289l2.844-12.231h22.756l-20.196 83.911h-19.058c-0.61 0.108-1.313 0.17-2.030 0.17-4.853 0-9.046-2.827-11.022-6.923l-37.010-78.58h25.884s4.836 11.093 6.542 13.653zM870.969 223.573l3.413 7.964v-6.827s4.836-19.911 5.404-24.178h-20.48zM59.733 494.080c-1.771 13.882-2.804 29.981-2.844 46.313l154.453 0.052c0-9.671 0-19.058 0-28.444h28.444c0 9.956 0 19.911 0 29.867 0-1.422 641.991-1.422 641.991-1.422 0 235.641-191.025 426.667-426.667 426.667s-426.667-191.025-426.667-426.667c0.040-19.396 1.382-38.44 3.945-57.095 8.002 5.042 17.388 8.171 27.344 10.731zM851.911 568.889h-153.884c-1.783 51.332-8.838 100.125-20.652 147.027l136.99-4.804c20.299-41.491 33.746-89.864 37.471-140.936zM799.573 739.555h-129.138c-19.562 73.058-57.691 135.52-109.048 184.152 102.2-28.822 185.871-94.901 237.17-182.28zM469.333 938.667c73.387-8.818 136.818-85.333 170.667-199.111h-170.667zM469.333 711.111h180.053c11.118-42.108 18.376-90.88 20.162-141.046l-199.078-1.176zM440.889 568.889h-199.111c1.822 51.343 9.080 100.115 21.23 146.916l177.881-4.694zM440.889 938.667v-199.111h-170.667c33.849 111.787 97.28 188.871 170.667 199.111zM348.729 925.298c-51.636-49.187-89.713-112.164-108.336-183.028l-129.744-2.715c52.252 89.199 135.815 155.264 235.271 183.635zM95.858 711.111h135.964c-10.789-42.097-17.843-90.89-19.594-141.032l-153.917-1.19c3.801 52.358 17.248 100.731 38.575 144.563zM924.729 483.555h-483.556c-0.186 0.002-0.406 0.003-0.626 0.003-10.051 0-19.614-2.094-28.275-5.869 5.696-2.799 10.062-5.621 14.263-8.657l5.252-3.966 13.369-9.956h479.573c23.442-0.161 42.382-19.202 42.382-42.666 0 0 0-0.001 0-0.001v-284.444c0-23.564-19.103-42.667-42.667-42.667h-469.333v-28.444h469.618c39.151 0.162 70.827 31.937 70.827 71.111 0 0 0 0 0 0.001v284.444c0 0 0 0 0 0.001 0 39.174-31.676 70.949-70.811 71.11zM199.111 455.111c-131.698 0-190.862-43.804-193.138-45.511l-5.689-4.267v-352.142l4.267-4.267c2.276-1.991 52.338-48.924 194.56-48.924s192.853 46.933 195.129 48.924l4.267 4.267v352.142l-5.689 4.267c-2.56 1.991-62.009 45.511-193.707 45.511zM199.111 426.667c3.844 0.141 8.36 0.222 12.895 0.222 51.9 0 101.339-10.538 146.293-29.592-44.208-17.259-92.844-27.839-143.952-27.839-5.358 0-10.69 0.116-15.991 0.347-3.884-0.239-9.323-0.36-14.791-0.36-51.1 0-99.728 10.585-143.811 29.682 44.63 17.245 93.845 27.798 145.525 27.798 4.864 0 9.707-0.093 14.526-0.279zM28.444 259.129c45.228-20.194 98.011-31.955 153.54-31.955 6.024 0 12.015 0.138 17.971 0.412 4.445-0.291 10.643-0.439 16.875-0.439 55.302 0 107.88 11.664 155.407 32.667l-2.46-82.037c-14.507-9.671-64.284-35.556-170.667-35.556s-156.444 26.169-170.667 35.556zM199.111 28.444c-107.236 0-156.444 28.444-170.667 37.547v79.36c45.228-20.194 98.011-31.955 153.54-31.955 6.024 0 12.015 0.138 17.971 0.412 4.414-0.287 10.575-0.434 16.77-0.434 55.338 0 107.952 11.662 155.518 32.663l-2.466-80.047c-13.938-9.102-63.716-37.547-170.667-37.547zM369.778 291.555c-14.222-9.387-64-35.556-170.667-35.556s-156.444 26.169-170.667 35.556v81.067c45.067-20.033 97.645-31.697 152.947-31.697 6.232 0 12.43 0.148 18.59 0.441 4.241-0.276 10.233-0.414 16.256-0.414 55.53 0 108.312 11.761 155.993 32.927z" />
<glyph unicode="&#xe936;" glyph-name="atm" d="M952.889 768h-881.778c-39.274 0-71.111-31.838-71.111-71.111v-412.444h199.111v28.444h-170.667v384c0 23.564 19.103 42.667 42.667 42.667h881.778c23.564 0 42.667-19.103 42.667-42.667v-384h-170.667v-28.444h199.111v412.444c0 39.274-31.838 71.111-71.111 71.111zM256 99.555c0-23.564 19.103-42.667 42.667-42.667h426.667c23.564 0 42.667 19.103 42.667 42.667v469.333h-512zM284.444 540.444h455.111v-440.889c0-7.855-6.368-14.222-14.222-14.222h-426.667c-7.855 0-14.222 6.368-14.222 14.222zM535.324 206.507c0.033 0 0.072 0 0.112 0 21.031 0 40.651 6.038 57.222 16.475l-15.521 23.916c-11.82-7.417-26.188-11.817-41.583-11.817-27.414 0-51.57 13.95-65.756 35.139l56.709 0.286v28.444h-69.404c-1.256 5.381-1.981 11.563-1.991 17.913-0.108 1.581-0.17 3.418-0.17 5.269s0.062 3.689 0.183 5.509l69.676-0.247v28.444h-59.449c13.585 25.283 39.783 42.219 69.951 42.382 0.12 0.001 0.235 0.001 0.35 0.001 17.050 0 32.831-5.435 45.704-14.668l15.978 23.201c-17.258 12.449-38.832 19.911-62.15 19.911-0.050 0-0.101 0-0.151 0-46.242-0.309-85.603-29.465-101.007-70.363l-35.803-0.748v-28.444h28.444c0-3.413 0-6.827 0-10.524 0.089-6.395 0.706-12.582 1.81-18.599l-30.255 0.679v-28.444h38.969c17.354-37.704 54.705-63.463 98.1-63.715zM170.667 654.222h682.667v-28.444h-682.667v28.444z" />
<glyph unicode="&#xe938;" glyph-name="magazin" d="M824.889 796.444v-28.444h142.222v-668.444c0-23.564-19.103-42.667-42.667-42.667h-824.889c-23.564 0-42.667 19.103-42.667 42.667v711.111c0 23.564 19.103 42.667 42.667 42.667h526.222v-199.111h199.111v-483.556h28.444v503.751l-207.36 207.36h-546.418c-39.274 0-71.111-31.838-71.111-71.111v-711.111c0-39.274 31.838-71.111 71.111-71.111h824.889c39.274 0 71.111 31.838 71.111 71.111v696.889zM654.222 833.138l150.471-150.471h-150.471zM170.667 512h540.444v-28.444h-540.444v28.444zM256 625.778h341.333v-28.444h-341.333v28.444zM170.667 170.667h540.444v-28.444h-540.444v28.444zM455.111 341.333h256v-28.444h-256v28.444zM455.111 256h256v-28.444h-256v28.444zM455.111 426.667h256v-28.444h-256v28.444zM170.667 426.667v-199.111h227.556v199.111zM369.778 256h-170.667v142.222h170.667z" />
<glyph unicode="&#xe939;" glyph-name="finger-arrows" d="M697.173 455.111h-185.173v113.778c0 31.419-25.47 56.889-56.889 56.889s-56.889-25.47-56.889-56.889v-170.667h-14.222c-39.274 0-71.111-31.838-71.111-71.111v-235.52l6.827-4.267c66.164-37.425 145.158-59.791 229.31-60.585 0.681-0.004 1.207-0.005 1.732-0.005 78.005 0 150.738 22.573 212.023 61.544l5.22 3.312v292.409c0 0 0 0 0 0.001 0 39.174-31.676 70.949-70.811 71.11zM739.556 107.52c-180.338-107.236-361.529-19.627-398.222 0v219.591c0 23.564 19.103 42.667 42.667 42.667h14.222v-85.333h28.444v284.444c0 15.709 12.735 28.444 28.444 28.444s28.444-12.735 28.444-28.444v-199.111h28.444v56.889h56.889v-56.889h28.444v56.889h56.889v-56.889h28.444v56.889h14.222c23.564 0 42.667-19.103 42.667-42.667zM341.618 597.333v28.444h-207.36l89.6 89.6-20.196 19.911-123.733-123.733 123.733-123.733 20.196 19.911-89.6 89.6h207.36zM820.907 735.289l-19.911-19.911 89.316-89.6h-207.36v-28.444h207.36l-89.316-89.6 19.911-19.911 124.018 123.733-124.018 123.733z" />
<glyph unicode="&#xe93a;" glyph-name="document-lines-checkmark" d="M881.778 760.604l-202.524 201.387-6.258 5.12h-459.662c-39.274 0-71.111-31.838-71.111-71.111v-881.778c0-39.274 31.838-71.111 71.111-71.111h597.333c39.274 0 71.111 31.838 71.111 71.111v739.556zM682.667 918.471l150.471-150.471h-150.471zM853.333 14.222c0-23.564-19.103-42.667-42.667-42.667h-597.333c-23.564 0-42.667 19.103-42.667 42.667v881.778c0 23.564 19.103 42.667 42.667 42.667h440.889v-199.111h199.111zM284.444 625.778h455.111v-28.444h-455.111v28.444zM284.444 512h455.111v-28.444h-455.111v28.444zM284.444 398.222h455.111v-28.444h-455.111v28.444zM284.444 284.444h256v-28.444h-256v28.444zM284.444 170.667h256v-28.444h-256v28.444zM593.067 137.955l-19.911-19.911 67.982-68.267 123.733 154.738-22.187 17.636-103.822-129.707-45.796 45.511z" />
<glyph unicode="&#xe93b;" glyph-name="document-checkmark" d="M881.778 760.604l-202.524 201.387-6.258 5.12h-459.662c-39.274 0-71.111-31.838-71.111-71.111v-881.778c0-39.274 31.838-71.111 71.111-71.111h597.333c39.274 0 71.111 31.838 71.111 71.111v739.556zM682.667 918.471l150.471-150.471h-150.471zM853.333 14.222c0-23.564-19.103-42.667-42.667-42.667h-597.333c-23.564 0-42.667 19.103-42.667 42.667v881.778c0 23.564 19.103 42.667 42.667 42.667h440.889v-199.111h199.111zM337.067 351.573l-19.911-19.911 95.289-95.858 265.956 266.24-19.911 19.911-246.044-245.76-75.378 75.378z" />
<glyph unicode="&#xe93c;" glyph-name="document-pdf" d="M881.778 760.604l-202.524 201.387-6.258 5.12h-459.662c-39.274 0-71.111-31.838-71.111-71.111v-881.778c0-39.274 31.838-71.111 71.111-71.111h597.333c39.274 0 71.111 31.838 71.111 71.111v739.556zM682.667 918.471l150.471-150.471h-150.471zM853.333 14.222c0-23.564-19.103-42.667-42.667-42.667h-597.333c-23.564 0-42.667 19.103-42.667 42.667v881.778c0 23.564 19.103 42.667 42.667 42.667h440.889v-199.111h199.111zM319.431 483.555c-31.004 0-63.431 0-63.431 0v-221.013h42.667v70.258s8.818 0 17.351 0c58.596 0 90.738 35.556 90.738 80.498s-29.013 70.258-87.324 70.258zM319.431 366.933c-7.114 0.105-13.998 0.722-20.721 1.815l0.81 79.536h18.204c32.142 0 45.796-16.782 45.796-40.676 0.018-0.451 0.029-0.981 0.029-1.513 0-21.836-17.702-39.538-39.538-39.538-1.916 0-3.801 0.136-5.645 0.4zM503.467 483.555c-28.444 0-54.044 0-71.396-1.707v-220.16c18.773 0 38.684-1.707 61.44-1.707 71.964 0 121.742 39.822 121.742 115.484s-43.52 108.089-111.787 108.089zM497.778 296.391c-0.175-0.001-0.382-0.001-0.59-0.001-8.023 0-15.902 0.621-23.59 1.817l0.855 148.655c6.827 0 15.929 0 25.884 0 50.347 0 69.12-28.444 69.12-75.662 0.295-2.362 0.463-5.095 0.463-7.867 0-37.074-30.055-67.129-67.129-67.129-1.764 0-3.513 0.068-5.243 0.202zM645.404 261.404h42.382v92.16h82.773v34.702h-82.773v57.742h88.178v36.124h-130.56v-220.729z" />
<glyph unicode="&#xe93d;" glyph-name="document-arrow" d="M881.778 760.604l-202.524 201.387-6.258 5.12h-459.662c-39.274 0-71.111-31.838-71.111-71.111v-881.778c0-39.274 31.838-71.111 71.111-71.111h597.333c39.274 0 71.111 31.838 71.111 71.111v739.556zM682.667 918.471l150.471-150.471h-150.471zM853.333 14.222c0-23.564-19.103-42.667-42.667-42.667h-597.333c-23.564 0-42.667 19.103-42.667 42.667v881.778c0 23.564 19.103 42.667 42.667 42.667h440.889v-199.111h199.111zM387.982 478.72l21.049-18.773 88.462 99.271 0.569-331.662h28.444l-0.569 333.084 89.6-100.693 21.333 18.773-124.587 139.947-124.302-139.947z" />
<glyph unicode="&#xe93e;" glyph-name="document-lines-pen" d="M796.444 487.822v271.644l-202.524 202.524-6.258 5.12h-459.662c-39.274 0-71.111-31.838-71.111-71.111v-881.778c0-39.274 31.838-71.111 71.111-71.111h597.333c39.274 0 71.111 31.838 71.111 71.111v124.018l-22.756-22.756-5.689-1.707v-99.556c0-23.564-19.103-42.667-42.667-42.667h-597.333c-23.564 0-42.667 19.103-42.667 42.667v881.778c0 23.564 19.103 42.667 42.667 42.667h440.889v-199.111h199.111v-280.178zM597.333 918.471l150.471-150.471h-150.471zM625.778 142.222l25.316 119.751 220.16 221.582h4.267c1.416 0.097 3.069 0.152 4.735 0.152 23.676 0 44.753-11.125 58.289-28.433l0.123-0.163c17.461-13.659 28.579-34.73 28.579-58.399 0-1.57-0.049-3.129-0.145-4.675l0.011-4.055-221.582-220.16zM677.262 247.751l-14.507-68.551 68.836 14.507 207.076 207.076c-3.016 13.631-10.195 25.254-20.114 33.78-8.733 10.134-20.468 17.329-33.812 20.192zM199.111 625.778h455.111v-28.444h-455.111v28.444zM199.111 512h455.111v-28.444h-455.111v28.444zM199.111 398.222h455.111v-28.444h-455.111v28.444zM199.111 284.444h312.889v-28.444h-312.889v28.444zM199.111 170.667h312.889v-28.444h-312.889v28.444z" />
<glyph unicode="&#xe93f;" glyph-name="phone-suitcase" d="M953.173 711.111h-99.84v42.667c0 0 0 0.001 0 0.001 0 23.464-18.941 42.504-42.367 42.666h-142.238c-0.084 0.001-0.184 0.001-0.284 0.001-23.564 0-42.667-19.103-42.667-42.667 0 0 0-0.001 0-0.001v-42.667h-99.556c-39.274 0-71.111-31.838-71.111-71.111v-256c0.060-11.088 2.679-21.55 7.295-30.844 16.566-13.743 35.158-26.99 54.803-38.652l7.876-1.046h72.249l28.444 28.444h-28.444v340.764h284.444v-341.333l80.498-28.444c35.006 4.663 61.73 34.331 61.73 70.24 0 0.306-0.002 0.612-0.006 0.917v255.954c0 0 0 0 0 0.001 0 39.174-31.676 70.949-70.811 71.11zM568.889 341.333h-42.667c-23.564 0-42.667 19.103-42.667 42.667v256c0 23.564 19.103 42.667 42.667 42.667h42.667zM824.889 711.111h-170.667v42.667c0 7.855 6.368 14.222 14.222 14.222h142.222c7.855 0 14.222-6.368 14.222-14.222zM995.556 384c0-23.564-19.103-42.667-42.667-42.667h-42.667v341.333h42.667c23.564 0 42.667-19.103 42.667-42.667zM727.040-9.387c-150.471 0-349.582 81.636-480.711 212.764-189.44 188.018-283.591 519.396-186.027 644.551l90.169 90.738h129.707l91.876-259.698-116.053-115.484c2.56-21.902 18.773-107.236 123.449-212.196s189.44-120.889 212.48-123.733l115.769 115.2 259.413-91.022v-129.707l-89.6-89.6c-38.586-26.395-86.266-42.149-137.625-42.149-4.519 0-9.009 0.122-13.468 0.363zM162.418 910.222l-80.782-81.067c-87.324-112.071 8.818-430.933 184.889-605.867 187.164-187.164 487.538-250.596 592.782-170.667l79.36 81.351v97.849l-223.858 79.076-111.502-111.787h-5.973c-4.551 0-107.236 1.707-237.511 131.982s-132.267 233.529-132.267 237.796v5.973l111.502 111.502-78.791 223.858z" />
<glyph unicode="&#xe940;" glyph-name="phone-visa" d="M669.582 512h34.702c0.32 0.041 0.69 0.065 1.066 0.065 4.187 0 7.693-2.918 8.593-6.832l7.407-36.184c-8.792 22.081-27.969 38.34-51.331 42.88zM711.111 430.649l-20.196 68.551c13.285-8.469 23.85-20.128 30.781-33.927l2.784-9.024 21.902 56.889h23.893l-35.271-82.204zM788.196 430.649h-22.756l14.222 82.204h22.471l-13.938-82.204zM826.596 429.511c-0.37-0.007-0.807-0.011-1.245-0.011-8.542 0-16.718 1.569-24.255 4.435l3.598 18.332h3.129c5.728-2.704 12.443-4.283 19.526-4.283 0.436 0 0.87 0.006 1.302 0.018 6.763-0.001 13.305 2.559 13.305 7.963s-3.129 6.258-11.662 10.524-19.627 10.524-19.627 22.187c0 15.929 15.929 27.022 37.831 27.022 0.176 0.002 0.385 0.003 0.594 0.003 7.055 0 13.792-1.359 19.964-3.829l-3.491-17.508h-1.707c-4.558 1.987-9.868 3.143-15.448 3.143-0.369 0-0.737-0.005-1.104-0.015-8.479 0.001-12.746-3.697-12.746-7.394s4.836-6.258 12.8-10.524c12.8-6.258 19.058-12.8 19.058-22.187-0.853-17.067-15.929-27.876-39.822-27.876zM930.418 512h-17.067c-0.472 0.073-1.015 0.114-1.569 0.114-4.579 0-8.493-2.847-10.068-6.868l-33.021-75.451h23.324s4.267 9.671 4.836 12.231h28.444l2.56-12.231h20.764zM903.396 458.24l9.102 22.756 3.129 7.964v-6.827s4.267-19.627 4.836-23.893zM520.533 312.889h76.8l28.444 28.444h-99.556c-23.564 0-42.667 19.103-42.667 42.667v256c0 23.564 19.103 42.667 42.667 42.667h426.667c23.564 0 42.667-19.103 42.667-42.667v-256c0-23.564-19.103-42.667-42.667-42.667h-67.982l77.938-28.444c34.759 5.051 61.159 34.648 61.159 70.411 0 0.246-0.001 0.492-0.004 0.737v255.963c0 39.274-31.838 71.111-71.111 71.111h-426.667c-39.274 0-71.111-31.838-71.111-71.111v-256c0.055-10.865 2.568-21.13 7.010-30.285 17.066-14.198 36.22-27.826 56.483-39.774zM727.040-9.387c-150.471 0-349.582 81.636-480.711 212.764-189.44 188.018-283.591 519.396-186.027 644.551l90.169 90.738h129.707l91.876-259.698-116.053-115.484c2.56-21.902 18.773-107.236 123.449-212.196s189.44-120.889 212.48-123.733l115.769 115.2 259.413-91.022v-129.707l-89.6-89.6c-38.586-26.395-86.266-42.149-137.625-42.149-4.519 0-9.009 0.122-13.468 0.363zM162.418 910.222l-80.782-81.067c-87.324-112.071 8.818-430.933 184.889-605.867 187.164-187.164 487.538-250.596 592.782-170.667l79.36 81.351v97.849l-223.858 79.076-111.502-111.787h-5.973c-4.551 0-107.236 1.707-237.511 131.982s-132.267 233.529-132.267 237.796v5.973l111.502 111.502-78.791 223.858z" />
<glyph unicode="&#xe941;" glyph-name="phone-lines" d="M853.333 412.444h-28.444c-0.162 164.884-133.783 298.505-298.651 298.667l-0.016 28.444c180.594-0.162 326.949-146.518 327.111-327.096zM967.111 412.444h-28.444c-0.324 227.657-184.788 412.121-412.414 412.444l-0.031 28.444c243.366-0.324 440.565-197.523 440.889-440.858zM796.444-28.445c-153.031 0-387.982 107.236-506.596 231.253-209.92 219.022-301.511 514.276-199.111 644.267l88.178 91.591h129.707l91.591-259.698-113.778-113.778c8.533-25.031 43.52-110.080 150.187-213.333s181.191-121.173 199.111-123.449l116.338 87.324 243.484-122.027v-100.124l-89.6-89.6c-27.604-20.429-62.321-32.7-99.903-32.7-3.38 0-6.736 0.099-10.067 0.295zM190.862 910.222l-81.351-81.067c-100.409-128.853 24.178-422.969 199.111-605.867 156.729-163.556 486.116-276.48 577.707-199.111l80.782 81.351v70.542l-211.911 105.813-110.364-82.773h-4.836c-3.413 0-88.747 1.991-223.289 131.982s-159.289 230.116-160.711 234.382l-1.991 7.68 113.778 113.778-79.076 223.289z" />
<glyph unicode="&#xe942;" glyph-name="squares-finger" d="M199.111 682.667h-199.111v199.111h199.111zM28.444 711.111h142.222v142.222h-142.222zM455.111 682.667h-199.111v199.111h199.111zM284.444 711.111h142.222v142.222h-142.222zM711.111 682.667h-199.111v199.111h199.111zM540.444 711.111h142.222v142.222h-142.222zM199.111 426.667h-199.111v199.111h199.111zM28.444 455.111h142.222v142.222h-142.222zM199.111 170.667h-199.111v199.111h199.111zM28.444 199.111h142.222v142.222h-142.222zM537.6 515.129l2.844-2.844v85.049h142.222v-28.444c8.22 6.936 17.581 12.927 27.677 17.601l0.767 39.288h-199.111v-92.444c9.812-5.023 18.242-11.092 25.63-18.233zM356.978 455.111h-72.533v142.222h142.222v-56.889c8.374 3.007 18.066 5.039 28.137 5.673l0.308 79.66h-199.111v-199.111h100.693c-0.516 3.951-0.81 8.521-0.81 13.159 0 5.393 0.398 10.692 1.166 15.871zM455.111 208.498s0 1.991 0 3.129v85.333l-28.444 28.444v-126.293h-142.222v142.222h125.156l-23.040 23.040c-1.707 1.707-2.844 3.698-4.551 5.404h-126.009v-199.111h199.111v35.556s0 1.422 0 2.276zM814.080 520.249c-12.875 12.907-30.678 20.892-50.347 20.892s-37.472-7.985-50.345-20.89l-130.846-130.846-85.333 85.333c-9.016 9.051-21.489 14.652-35.271 14.652-27.493 0-49.78-22.287-49.78-49.78 0-13.711 5.543-26.128 14.511-35.131l125.723-125.723-20.196-20.196c-12.838-12.906-20.774-30.7-20.774-50.347s7.936-37.441 20.777-50.35l126.29-126.29 7.68 1.707c2.56 0 254.009 62.009 312.889 312.889l1.707 7.68zM667.591 63.431l-113.778 113.778c-7.642 7.75-12.362 18.399-12.362 30.151s4.72 22.401 12.367 30.156l20.191 20.191 59.449-58.596 20.196 20.196-206.507 206.507c-2.33 3.369-3.721 7.541-3.721 12.038 0 11.782 9.551 21.333 21.333 21.333 4.713 0 9.068-1.528 12.599-4.116l145.86-145.878 20.196 20.196-40.391 40.391 40.676 40.676 38.969-40.676 20.196 20.196-40.107 40.107 39.822 39.822 40.107-40.107 20.196 20.196-40.107 40.107 9.956 9.956c7.719 7.71 18.378 12.478 30.151 12.478s22.432-4.768 30.152-12.478l155.306-155.306c-50.631-202.524-240.64-269.369-280.747-281.316z" />
<glyph unicode="&#xe943;" glyph-name="lightbulb" d="M625.778 142.222h-236.942l-3.698 8.818s-40.107 99.271-81.636 137.102c-50.916 46.364-75.947 119.467-75.947 223.858-0.011 0.935-0.018 2.040-0.018 3.146 0 155.366 125.949 281.316 281.316 281.316 1.106 0 2.211-0.006 3.314-0.019 0.768 0.013 1.872 0.019 2.979 0.019 155.366 0 281.316-125.949 281.316-281.316 0-1.106-0.006-2.211-0.019-3.314 0.002-104.223-24.745-177.61-75.661-223.69-44.942-40.676-81.351-135.68-81.636-136.818l-3.413-9.102zM407.609 170.667h208.498c20.679 53.547 49.571 99.532 85.623 138.845 44.937 40.355 66.27 106.631 66.27 202.488 0.010 0.851 0.016 1.855 0.016 2.861 0 139.814-113.342 253.156-253.156 253.156-1.006 0-2.010-0.006-3.014-0.018-0.698 0.012-1.702 0.018-2.708 0.018-139.814 0-253.156-113.342-253.156-253.156 0-1.006 0.006-2.010 0.018-3.014-0.001-95.705 21.616-161.98 66.559-202.656 35.104-39.302 63.901-85.178 84.214-135.393zM398.507 113.778h227.556v-28.444h-227.556v28.444zM426.951 56.889h170.667v-28.444h-170.667v28.444zM455.396 0h113.778v-28.444h-113.778v28.444zM853.618 512h113.778v-28.444h-113.778v28.444zM57.173 512h113.778v-28.444h-113.778v28.444zM497.209 968.818h28.444v-113.778h-28.444v113.778zM774.3 768.232l80.453 80.453 20.113-20.113-80.453-80.453-20.113 20.113zM119.778 828.272l20.113 20.113 80.453-80.453-20.113-20.113-80.453 80.453z" />
<glyph unicode="&#xe945;" glyph-name="bankey" d="M512-56.889c-85.333 0-369.778 21.618-369.778 298.667v682.667c0.319 23.634 19.552 42.67 43.232 42.67 0.201 0 0.402-0.001 0.603-0.004h651.916c0.17 0.002 0.371 0.004 0.573 0.004 23.68 0 42.913-19.036 43.232-42.64v-682.697c0-277.049-284.444-298.667-369.778-298.667zM186.027 938.667c-0.173 0.007-0.376 0.011-0.579 0.011-7.973 0-14.472-6.308-14.78-14.206l-0.001-682.695c0-243.769 238.649-270.222 341.333-270.222s341.333 26.453 341.333 270.222v682.667c-0.308 7.925-6.808 14.234-14.781 14.234-0.204 0-0.407-0.004-0.608-0.012zM369.778 540.444h-113.778v113.778h113.778zM284.444 568.889h56.889v56.889h-56.889zM568.889 540.444h-113.778v113.778h113.778zM483.556 568.889h56.889v56.889h-56.889zM768 540.444h-113.778v113.778h113.778zM682.667 568.889h56.889v56.889h-56.889zM369.778 341.333h-113.778v113.778h113.778zM284.444 369.778h56.889v56.889h-56.889zM568.889 341.333h-113.778v113.778h113.778zM483.556 369.778h56.889v56.889h-56.889zM768 341.333h-113.778v113.778h113.778zM682.667 369.778h56.889v56.889h-56.889zM369.778 142.222h-113.778v113.778h113.778zM284.444 170.667h56.889v56.889h-56.889zM568.889 142.222h-113.778v113.778h113.778zM483.556 170.667h56.889v56.889h-56.889zM768 142.222h-113.778v113.778h113.778zM682.667 170.667h56.889v56.889h-56.889zM256 853.333h369.778v-28.444h-369.778v28.444zM256 796.444h512v-28.444h-512v28.444z" />
<glyph unicode="&#xe946;" glyph-name="visa-contactless" d="M952.889 0h-881.778c-39.274 0-71.111 31.838-71.111 71.111v597.333c0 39.274 31.838 71.111 71.111 71.111h881.778c39.274 0 71.111-31.838 71.111-71.111v-597.333c0-39.274-31.838-71.111-71.111-71.111zM71.111 711.111c-23.564 0-42.667-19.103-42.667-42.667v-597.333c0-23.564 19.103-42.667 42.667-42.667h881.778c23.564 0 42.667 19.103 42.667 42.667v597.333c0 23.564-19.103 42.667-42.667 42.667zM426.667 284.444h56.889c0.523 0.067 1.127 0.105 1.741 0.105 6.941 0 12.743-4.874 14.17-11.387l12.533-60.967c-14.832 35.778-46.381 61.962-84.634 69.013zM495.502 147.342l-32.996 115.484c21.789-14.083 39.125-33.334 50.543-56.070l4.355-15.325 35.84 93.013h38.969l-56.889-138.24zM620.089 142.222h-38.116l23.893 142.222h37.831l-23.609-142.222zM682.667 142.222c-0.681-0.015-1.483-0.024-2.287-0.024-13.904 0-27.196 2.618-39.411 7.389l5.858 30.751 5.12-1.991c9.592-4.845 20.91-7.683 32.89-7.683 0.237 0 0.474 0.001 0.711 0.003 11.057 0 21.866 3.982 21.866 13.369s-5.12 10.24-19.058 17.636-31.858 17.636-31.858 36.978c0 26.738 25.884 45.227 61.724 45.227 0.27 0.003 0.589 0.005 0.908 0.005 11.566 0 22.595-2.301 32.653-6.47l-5.686-29.659-3.129 1.991c-7.347 3.258-15.917 5.155-24.93 5.155-0.736 0-1.468-0.013-2.198-0.038-13.832 0.003-20.943-6.255-20.943-12.228s7.964-10.24 21.049-17.636c21.049-10.24 31.004-21.618 31.004-36.978-0.569-27.307-25.6-45.796-64.284-45.796zM853.333 284.444h-28.444c-0.829 0.136-1.784 0.213-2.757 0.213-7.729 0-14.316-4.893-16.83-11.751l-55.791-130.684h39.822c2.945 8.075 5.421 17.654 6.992 27.535l47.052 0.909c0-10.809 3.982-28.444 3.982-28.444h35.84zM807.822 199.111c3.129 7.111 15.076 38.116 15.076 38.116l5.12 13.369 1.991-11.378s7.111-32.996 7.964-40.107zM847.929 803.84c-7.619 12.689-21.307 21.049-36.947 21.049-0.011 0-0.022 0-0.032 0-0.035 0-0.079 0-0.123 0-15.314 0-28.732-8.123-36.179-20.295l-24.283 14.606c12.646 20.86 35.227 34.585 61.013 34.585s48.367-13.725 60.835-34.269zM723.342 829.724l-25.031 13.653c22.137 40.124 64.172 66.851 112.449 66.851 0.467 0 0.934-0.003 1.4-0.007l-0.071 0.001c0.395 0.004 0.861 0.007 1.328 0.007 48.278 0 90.313-26.727 112.115-66.192l-24.697-14.312c-17.216 31.214-49.913 52.007-87.467 52.007s-70.251-20.793-87.207-51.494z" />
<glyph unicode="&#xe947;" glyph-name="cards-visa" d="M952.889 56.889h-768c-39.274 0-71.111 31.838-71.111 71.111v483.556c0 39.274 31.838 71.111 71.111 71.111h768c39.274 0 71.111-31.838 71.111-71.111v-483.556c0-39.274-31.838-71.111-71.111-71.111zM184.889 654.222c-23.564 0-42.667-19.103-42.667-42.667v-483.556c0-23.564 19.103-42.667 42.667-42.667h768c23.564 0 42.667 19.103 42.667 42.667v483.556c0 23.564-19.103 42.667-42.667 42.667zM56.889 483.555l-28.444 213.618c-0.215 1.609-0.338 3.469-0.338 5.358 0 21.98 16.62 40.078 37.979 42.412l767.337 98.435c0.018 0 0.038 0 0.059 0 21.659 0 39.548-16.138 42.3-37.046l8.557-66.776h28.444l-9.102 70.542c-4.852 35.13-34.681 61.893-70.76 61.893-2.83 0-5.621-0.165-8.364-0.485l-761.978-98.386c-35.696-4.14-63.147-34.196-63.147-70.664 0-3.166 0.207-6.284 0.608-9.34l56.85-432.28zM455.111 312.889h56.889c0.523 0.067 1.127 0.105 1.741 0.105 6.941 0 12.743-4.874 14.17-11.387l12.533-60.967c-14.832 35.778-46.381 61.962-84.634 69.013zM523.947 175.787l-32.996 115.484c21.789-14.083 39.125-33.334 50.543-56.070l4.355-15.325 35.84 93.013h38.969l-56.889-138.24zM648.533 170.667h-38.116l23.893 142.222h37.831l-23.609-142.222zM711.111 170.667c-0.681-0.015-1.483-0.024-2.287-0.024-13.904 0-27.196 2.618-39.411 7.389l5.858 30.751 5.12-1.991c9.592-4.845 20.91-7.683 32.89-7.683 0.237 0 0.474 0.001 0.711 0.003 11.057 0 21.866 3.982 21.866 13.369s-5.12 10.24-19.058 17.636-31.858 17.636-31.858 36.978c0 26.738 25.884 45.227 61.724 45.227 0.27 0.003 0.589 0.005 0.908 0.005 11.566 0 22.595-2.301 32.653-6.47l-5.686-29.659-3.129 1.991c-7.347 3.258-15.917 5.155-24.93 5.155-0.736 0-1.468-0.013-2.198-0.038-13.832 0.003-20.943-6.255-20.943-12.228s7.964-10.24 21.049-17.636c21.049-10.24 31.004-21.618 31.004-36.978-0.569-27.307-25.6-45.796-64.284-45.796zM881.778 312.889h-28.444c-0.829 0.136-1.784 0.213-2.757 0.213-7.729 0-14.316-4.893-16.83-11.751l-55.791-130.684h39.822c2.945 8.075 5.421 17.654 6.992 27.535l47.052 0.909c0-10.809 3.982-28.444 3.982-28.444h35.84zM836.267 227.555c3.129 7.111 15.076 38.116 15.076 38.116l5.12 13.369 1.991-11.378s7.111-32.996 7.964-40.107z" />
<glyph unicode="&#xe948;" glyph-name="cards-car" d="M56.889 483.555l-28.444 213.618c-0.215 1.609-0.338 3.469-0.338 5.358 0 21.98 16.62 40.078 37.979 42.412l767.337 98.435c0.018 0 0.038 0 0.059 0 21.659 0 39.548-16.138 42.3-37.046l8.557-66.776h28.444l-9.102 70.542c-4.852 35.13-34.681 61.893-70.76 61.893-2.83 0-5.621-0.165-8.364-0.485l-761.978-98.386c-35.696-4.14-63.147-34.196-63.147-70.664 0-3.166 0.207-6.284 0.608-9.34l56.85-432.28zM952.889 56.889h-768c-39.274 0-71.111 31.838-71.111 71.111v483.556c0 39.274 31.838 71.111 71.111 71.111h768c39.274 0 71.111-31.838 71.111-71.111v-483.556c0-39.274-31.838-71.111-71.111-71.111zM184.889 654.222c-23.564 0-42.667-19.103-42.667-42.667v-483.556c0-23.564 19.103-42.667 42.667-42.667h768c23.564 0 42.667 19.103 42.667 42.667v483.556c0 23.564-19.103 42.667-42.667 42.667zM858.738 146.773c-16.573 0.354-30.845 9.859-38.001 23.65l-194.959 0.244c-8.034-14.477-23.23-24.112-40.676-24.112s-32.642 9.636-40.555 23.876l-57.010 6.21-1.991 26.453-1.991 5.404v24.747l6.258 7.68c5.995 13.213 15.847 23.799 28.108 30.55 29.258 11.207 62.933 19.512 97.9 23.59 31.455 23.411 66.88 40.478 105.553 48.809 18.58 1.744 38.247 2.565 58.105 2.565 42.273 0 83.677-3.72 123.903-10.85l7.124-1.651v-14.222c3.129-4.267 8.249-11.378 13.653-20.48 5.238-8.821 10.038-19.056 13.839-29.765l0.383-5.79v-16.498l8.249-7.68v-6.542c-0.466-11.459-1.894-22.299-4.21-32.805-3.168-7.991-9.326-15.528-17.233-20.566l-3.588-2.38h-23.324c-5.218-17.382-20.847-29.921-39.48-30.434zM842.809 199.111l1.991-11.947c1.495-6.637 7.057-11.621 13.878-12.227 7.887 0.599 14.010 7.099 14.010 15.029 0 0.215-0.004 0.429-0.013 0.641l0.001 13.338h39.253c1.299 1.075 2.424 2.291 3.374 3.639 1.201 5.329 2.11 11.655 2.574 18.105l-7.654 8.976v26.738c-3.292 9.039-6.934 16.731-11.185 24.024-4.714 7.653-9.593 14.705-14.825 21.47l-2.434 3.43c-31.079 4.677-66.943 7.348-103.432 7.348-18.756 0-37.347-0.706-55.748-2.092-33.384-8.424-64.705-24.114-91.314-45.44l-2.663-1.914h-3.698c-35.058-3.935-67.023-11.543-97.362-22.545-3.636-3.331-8.736-9.347-11.769-16.456-0.998-2.46-2.248-4.349-3.798-5.946l0.004-2.84 4.551-4.551v-12.231l42.951-5.973 7.111-2.276 1.991-7.396c2.36-7.148 8.979-12.216 16.782-12.216s14.423 5.068 16.747 12.092l2.596 11.218z" />
<glyph unicode="&#xe949;" glyph-name="creditcard" d="M953.173 796.444h-881.778c-0.084 0-0.184 0.001-0.284 0.001-39.274 0-71.111-31.838-71.111-71.111 0 0 0 0 0-0.001v-568.889c0 0 0 0 0-0.001 0-39.274 31.838-71.111 71.111-71.111 0.1 0 0.2 0 0.3 0.001h881.762c39.151 0.162 70.827 31.937 70.827 71.111 0 0 0 0 0 0.001v568.889c0 0 0 0 0 0.001 0 39.174-31.676 70.949-70.811 71.11zM71.396 768h881.778c23.442-0.161 42.382-19.202 42.382-42.666 0 0 0-0.001 0-0.001v-99.555h-967.111v99.556c0 0 0 0.001 0 0.001 0 23.564 19.103 42.667 42.667 42.667 0.1 0 0.2 0 0.3-0.001zM995.556 597.333v-113.778h-967.111v113.778zM952.889 113.778h-881.778c-23.564 0-42.667 19.103-42.667 42.667v298.667h967.111v-298.667c0 0 0-0.001 0-0.001 0-23.464-18.941-42.504-42.367-42.666z" />
<glyph unicode="&#xe94a;" glyph-name="upload" d="M824.889 284.444v-85.333h-625.778v85.333h-113.778v-128c0-39.274 31.838-71.111 71.111-71.111h711.111c39.274 0 71.111 31.838 71.111 71.111v128zM867.271 113.778h-710.827c-23.564 0-42.667 19.103-42.667 42.667v99.556h56.889v-85.333h682.667v85.333h56.889v-99.556c0-23.564-19.103-42.667-42.667-42.667zM497.493 786.773l0.569-473.884h28.444l-0.569 475.307 89.6-100.693 21.333 18.773-124.587 139.947-124.302-139.947 21.049-18.773 88.462 99.271z" />
<glyph unicode="&#xe94b;" glyph-name="download" d="M824.889 284.444v-85.333h-625.778v85.333h-113.778v-128c0-39.274 31.838-71.111 71.111-71.111h711.111c39.274 0 71.111 31.838 71.111 71.111v128zM867.271 113.778h-710.827c-23.564 0-42.667 19.103-42.667 42.667v99.556h56.889v-85.333h682.667v85.333h56.889v-99.556c0-23.564-19.103-42.667-42.667-42.667zM497.493 372.338l0.569 473.884h28.444l-0.569-475.307 89.6 100.693 21.333-18.773-124.587-139.947-124.302 139.947 21.049 18.773 88.462-99.271z" />
<glyph unicode="&#xe94c;" glyph-name="pen-lines" d="M222.72 95.858l61.724 252.587 2.56 2.56 528.213 559.218h6.258c81.351 0 188.302-125.156 188.302-199.111v-5.689l-533.333-563.2zM312.889 334.222l-52.053-202.524 201.387 38.969 518.827 545.849c-5.12 59.449-90.169 159.289-153.6 165.262zM0 56.889h1024v-28.444h-1024v28.444zM0 113.778h170.667v-28.444h-170.667v28.444zM345.857 317.191l20.141 20.085 113.481-113.798-20.141-20.085-113.481 113.798zM800.923 800.82l20.141 20.085 113.481-113.798-20.141-20.085-113.481 113.798z" />
<glyph unicode="&#xe94d;" glyph-name="pen" d="M23.609-46.649l77.084 323.982 647.111 675.556h5.973c81.067 0 241.778-147.058 241.778-241.778v-5.689l-647.111-690.062zM126.862 263.111l-65.138-273.351 272.498 52.053 632.889 674.702c-5.973 77.653-138.809 200.818-207.36 207.644zM160.575 246.103l20.113 20.113 156.481-156.481-20.113-20.113-156.481 156.481zM729.546 843.191l20.113 20.113 156.481-156.481-20.113-20.113-156.481 156.481z" />
<glyph unicode="&#xe94e;" glyph-name="two-bubbles" d="M199.111 382.578v100.978h-170.667v303.502c0.446 5.284 4.845 9.404 10.206 9.404 0.212 0 0.423-0.006 0.632-0.019l575.687 0.001c0.18 0.011 0.391 0.018 0.603 0.018 5.361 0 9.76-4.12 10.203-9.367l0.003-132.873h28.444v132.836c-0.475 20.996-17.609 37.835-38.675 37.835-0.203 0-0.406-0.002-0.609-0.005h-575.685c-0.172 0.003-0.375 0.004-0.578 0.004-21.066 0-38.2-16.839-38.674-37.791l-0.001-331.991h170.667v-137.956l142.222 131.982v34.418h-4.836zM984.747 597.333h-575.716c-0.172 0.003-0.375 0.004-0.578 0.004-21.066 0-38.2-16.839-38.674-37.791l-0.001-331.991h335.076l148.48-137.387v137.387h170.667v331.947c-0.475 20.996-17.609 37.835-38.675 37.835-0.203 0-0.406-0.002-0.609-0.005zM995.556 256h-170.667v-100.978l-108.942 100.978h-317.724v303.502c0.446 5.284 4.845 9.404 10.206 9.404 0.212 0 0.423-0.006 0.632-0.019l575.687 0.001c0.18 0.011 0.391 0.018 0.603 0.018 5.361 0 9.76-4.12 10.203-9.367z" />
<glyph unicode="&#xe94f;" glyph-name="bubble-circles" d="M981.333 910.222h-938.667c0 0-0.001 0-0.001 0-23.464 0-42.504-18.941-42.666-42.367v-668.744h341.333v-189.156l194.56 189.156h488.107v668.444c0 23.564-19.103 42.667-42.667 42.667zM995.556 227.555h-471.040l-154.738-150.187v150.187h-341.333v640.284c0 7.698 6.24 13.938 13.938 13.938h938.667c7.855 0 14.222-6.368 14.222-14.222zM312.889 597.333c-31.419 0-56.889-25.47-56.889-56.889s25.47-56.889 56.889-56.889c31.419 0 56.889 25.47 56.889 56.889s-25.47 56.889-56.889 56.889zM312.889 512c-15.709 0-28.444 12.735-28.444 28.444s12.735 28.444 28.444 28.444c15.709 0 28.444-12.735 28.444-28.444s-12.735-28.444-28.444-28.444zM512 597.333c-31.419 0-56.889-25.47-56.889-56.889s25.47-56.889 56.889-56.889c31.419 0 56.889 25.47 56.889 56.889s-25.47 56.889-56.889 56.889zM512 512c-15.709 0-28.444 12.735-28.444 28.444s12.735 28.444 28.444 28.444c15.709 0 28.444-12.735 28.444-28.444s-12.735-28.444-28.444-28.444zM711.111 597.333c-31.419 0-56.889-25.47-56.889-56.889s25.47-56.889 56.889-56.889c31.419 0 56.889 25.47 56.889 56.889s-25.47 56.889-56.889 56.889zM711.111 512c-15.709 0-28.444 12.735-28.444 28.444s12.735 28.444 28.444 28.444c15.709 0 28.444-12.735 28.444-28.444s-12.735-28.444-28.444-28.444z" />
<glyph unicode="&#xe950;" glyph-name="id-circle-checkmark" d="M512 597.333h256v-28.444h-256v28.444zM512 768h256v-28.444h-256v28.444zM512 682.667h256v-28.444h-256v28.444zM409.031 369.778h-191.716l-48.64 162.418c41.214 23.095 90.444 36.696 142.851 36.696 0.479 0 0.958-0.001 1.436-0.003 0.076 0.001 0.252 0.001 0.429 0.001 52.855 0 102.56-13.486 145.862-37.204zM238.364 398.222h149.618l36.124 120.889c-30.905 13.535-66.923 21.411-104.781 21.411-2.263 0-4.52-0.028-6.77-0.084-1.782 0.068-4.272 0.103-6.769 0.103-37.535 0-73.227-7.885-105.513-22.089zM312.889 597.333c-47.128 0-85.333 38.205-85.333 85.333s38.205 85.333 85.333 85.333c47.128 0 85.333-38.205 85.333-85.333s-38.205-85.333-85.333-85.333zM312.889 739.555c-31.419 0-56.889-25.47-56.889-56.889s25.47-56.889 56.889-56.889c31.419 0 56.889 25.47 56.889 56.889s-25.47 56.889-56.889 56.889zM526.791 312.889h-398.791c-23.564 0-42.667 19.103-42.667 42.667v455.111c0 23.564 19.103 42.667 42.667 42.667h654.222c23.564 0 42.667-19.103 42.667-42.667v-333.653c11.44-2.613 20.95-5.449 30.208-8.808l-1.764 342.462c0 39.274-31.838 71.111-71.111 71.111h-654.222c-39.274 0-71.111-31.838-71.111-71.111v-455.111c0-39.274 31.838-71.111 71.111-71.111h390.542c2.612 11.438 5.448 20.948 8.808 30.206zM768 398.222c94.257 0 170.667-76.41 170.667-170.667s-76.41-170.667-170.667-170.667c-94.257 0-170.667 76.41-170.667 170.667s76.41 170.667 170.667 170.667zM768 426.667c-109.966 0-199.111-89.145-199.111-199.111s89.145-199.111 199.111-199.111c109.966 0 199.111 89.145 199.111 199.111s-89.145 199.111-199.111 199.111zM739.84 150.471l-52.622 52.907 19.911 19.911 32.711-32.427 89.6 89.316 19.911-19.911-109.511-109.796z" />
</font>
</defs>
</svg>
