<?xml version="1.0" encoding="utf-8"?>
<!-- Generator: Adobe Illustrator 19.1.0, SVG Export Plug-In . SVG Version: 6.00 Build 0)  -->
<svg version="1.1" id="Ebene_1" xmlns="http://www.w3.org/2000/svg" xmlns:xlink="http://www.w3.org/1999/xlink" x="0px" y="0px"
	 viewBox="100 -33.4 159.2 106.4" style="enable-background:new 100 -33.4 159.2 106.4;" xml:space="preserve">
<style type="text/css">
	.st0{fill:#FFFFFF;}
	.st1{fill:#F7B600;}
	.st2{fill:#1A1F71;}
</style>
<title>Asset 2</title>
<g>
	<rect x="100" y="-30.8" class="st0" width="159.2" height="101.1"/>
	<rect x="102.6" y="53.9" class="st1" width="153.9" height="13.8"/>
	<rect x="102.6" y="-28.1" class="st2" width="153.9" height="13.8"/>
	<path class="st2" d="M164.2,0.9l-15.9,37.9h-10.4l-7.8-30.3c-0.5-1.9-0.9-2.5-2.3-3.3c-3.1-1.5-6.3-2.6-9.7-3.2l0.2-1.1H135
		c2.3,0,4.2,1.7,4.5,3.9l4.1,21.9l10.2-25.8H164.2z M204.9,26.4c0-10-13.8-10.6-13.7-15c0-1.4,1.3-2.8,4.2-3.2
		c3.3-0.3,6.7,0.3,9.7,1.7l1.7-8c-2.9-1.1-6.1-1.7-9.2-1.7c-9.7,0-16.5,5.2-16.6,12.5c-0.1,5.5,4.9,8.5,8.6,10.3s5.1,3.1,5.1,4.7
		c0,2.5-3.1,3.7-5.9,3.7c-3.5,0.1-7-0.7-10.1-2.4l-1.8,8.3c3.5,1.4,7.2,2.1,10.9,2C198.1,39.4,204.8,34.3,204.9,26.4 M230.5,38.8
		h9.1l-7.9-37.9h-8.4c-1.8,0-3.5,1.1-4.2,2.8l-14.8,35.1h10.3l2-5.7h12.6L230.5,38.8z M219.5,25.4l5.2-14.2l3,14.2H219.5z
		 M178.2,0.9l-8.1,37.9h-9.8l8.1-37.9L178.2,0.9z"/>
</g>
</svg>
