<?xml version="1.0" encoding="utf-8"?>
<!-- Generator: Adobe Illustrator 19.1.0, SVG Export Plug-In . SVG Version: 6.00 Build 0)  -->
<svg version="1.1" id="Ebene_1" xmlns="http://www.w3.org/2000/svg" xmlns:xlink="http://www.w3.org/1999/xlink" x="0px" y="0px"
	 viewBox="97 -33.4 116.6 106.4" style="enable-background:new 97 -33.4 116.6 106.4;" xml:space="preserve">
<style type="text/css">
	.st0{fill:#FF5F00;}
	.st1{fill:#EB001B;}
	.st2{fill:#F79E1B;}
</style>
<title>Asset 2</title>
<g>
	<path id="_Compound_Path_" d="M118,64.1v-6c0.2-1.9-1.2-3.6-3.2-3.8c-0.2,0-0.4,0-0.5,0c-1.3-0.1-2.6,0.6-3.4,1.7
		c-0.7-1.1-1.9-1.8-3.2-1.7c-1.1,0-2.2,0.5-2.9,1.4v-1.2h-1.9v9.6h1.9v-5.5c-0.1-1.2,0.7-2.3,2-2.5c0.1,0,0.3,0,0.4,0
		c1.4,0,2.2,0.9,2.2,2.5v5.5h1.9v-5.5c-0.1-1.2,0.7-2.3,2-2.5c0.1,0,0.3,0,0.4,0c1.4,0,2.2,0.9,2.2,2.5v5.5H118z M149.2,54.6h-3.5
		v-2.9h-1.9v2.9h-2v1.7h2v4.5c0,2.2,0.8,3.5,3.2,3.5c0.9,0,1.8-0.3,2.6-0.7l-0.6-1.7c-0.5,0.3-1.2,0.5-1.8,0.5
		c-0.8,0.1-1.4-0.5-1.5-1.3c0-0.1,0-0.2,0-0.3v-4.6h3.5C149.2,56.2,149.2,54.6,149.2,54.6z M167,54.3c-1.1,0-2,0.5-2.6,1.4v-1.2
		h-1.9v9.6h1.9v-5.4c0-1.6,0.8-2.6,2.1-2.6c0.4,0,0.9,0.1,1.3,0.2l0.6-1.8C168,54.4,167.5,54.3,167,54.3z M140.1,55.3
		c-1.2-0.7-2.5-1.1-3.9-1c-2.4,0-3.9,1.1-3.9,3c0,1.6,1.1,2.5,3.2,2.8l1,0.1c1.1,0.2,1.8,0.6,1.8,1.1c0,0.7-0.8,1.2-2.3,1.2
		c-1.1,0-2.3-0.3-3.2-1l-1,1.5c1.2,0.8,2.6,1.2,4.1,1.2c2.8,0,4.3-1.3,4.3-3.1s-1.2-2.5-3.3-2.8l-1-0.1c-0.9-0.1-1.7-0.4-1.7-1
		s0.8-1.2,1.9-1.2c1,0,2.1,0.3,3,0.8L140.1,55.3z M169.2,59.3c-0.2,2.6,1.8,4.8,4.4,5c0.2,0,0.4,0,0.6,0c1.2,0.1,2.4-0.3,3.4-1.1
		l-1-1.5c-0.7,0.6-1.6,0.9-2.5,0.9c-1.8-0.1-3.1-1.7-2.9-3.5c0.1-1.6,1.4-2.8,2.9-2.9c0.9,0,1.8,0.3,2.5,0.9l1-1.5
		c-1-0.8-2.2-1.2-3.4-1.1c-2.5-0.3-4.7,1.5-5,3.9C169.2,58.7,169.2,59,169.2,59.3z M155.7,54.3c-2.8,0-4.7,2-4.7,5
		c-0.2,2.6,1.8,4.8,4.4,5c0.2,0,0.3,0,0.5,0c1.4,0,2.8-0.4,3.9-1.3l-1-1.4c-0.8,0.6-1.8,1-2.8,1c-1.5,0.1-2.7-1-2.9-2.5h7.1v-0.8
		C160.2,56.3,158.4,54.3,155.7,54.3z M155.7,56.1c1.3-0.1,2.4,1,2.5,2.3c0,0,0,0.1,0,0.1H153C153.1,57.1,154.3,56,155.7,56.1z
		 M129.8,59.3v-4.8h-1.9v1.2c-0.7-0.9-1.9-1.5-3.1-1.4c-2.8,0-5,2.2-5,5s2.2,5,5,5c1.2,0.1,2.4-0.5,3.1-1.4v1.2h1.9V59.3z M122,59.3
		c0.1-1.7,1.5-2.9,3.2-2.8s2.9,1.5,2.8,3.2c-0.1,1.6-1.4,2.8-3,2.8c-1.6,0-3-1.2-3-2.9C122,59.5,122,59.4,122,59.3z M195.9,54.3
		c-1.1,0-2,0.5-2.6,1.4v-1.2h-1.9v9.6h1.9v-5.4c0-1.6,0.8-2.6,2.1-2.6c0.4,0,0.9,0.1,1.3,0.2l0.6-1.8
		C196.9,54.4,196.4,54.3,195.9,54.3z M188.5,59.3v-4.8h-1.9v1.2c-0.7-0.9-1.9-1.5-3.1-1.4c-2.8,0-5,2.2-5,5s2.2,5,5,5
		c1.2,0.1,2.4-0.5,3.1-1.4v1.2h1.9V59.3z M180.8,59.3c0.1-1.7,1.5-2.9,3.2-2.8s2.9,1.5,2.8,3.2c-0.1,1.6-1.4,2.8-3,2.8
		C181.9,62.6,180.8,61.1,180.8,59.3z M207.9,59.3v-8.6H206v5c-0.7-0.9-1.9-1.5-3.1-1.4c-2.8,0-5,2.2-5,5s2.2,5,5,5
		c1.2,0.1,2.4-0.5,3.1-1.4v1.2h1.9V59.3z M200.1,59.3c0.1-1.7,1.5-2.9,3.2-2.8s2.9,1.5,2.8,3.2c-0.1,1.6-1.4,2.8-3,2.8
		c-1.6,0-3-1.2-3-2.9C200.1,59.5,200.1,59.4,200.1,59.3z"/>
	<g id="_Group_">
		<rect x="137.9" y="-18.3" class="st0" width="34.7" height="56.6"/>
		<path id="_Path_" class="st1" d="M141.5,10c0-11,5-21.5,13.7-28.3c-15.6-12.3-38.3-9.6-50.6,6s-9.6,38.3,6,50.6
			c6.4,5,14.2,7.7,22.3,7.7c8.1,0,15.9-2.7,22.2-7.7C146.6,31.5,141.5,21,141.5,10z"/>
		<path class="st2" d="M213.5,10c0,19.9-16.2,36-36,36c-8,0-15.8-2.7-22.2-7.7c15.6-12.4,18.3-35.1,5.9-50.7
			c-1.7-2.2-3.7-4.2-5.9-5.9c15.7-12.3,38.3-9.5,50.5,6.1C210.8-5.8,213.5,2,213.5,10z"/>
	</g>
</g>
</svg>
