<?xml version="1.0" encoding="utf-8"?>
<!-- Generator: Adobe Illustrator 19.1.0, SVG Export Plug-In . SVG Version: 6.00 Build 0)  -->
<svg version="1.1" id="Ebene_1" xmlns="http://www.w3.org/2000/svg" xmlns:xlink="http://www.w3.org/1999/xlink" x="0px" y="0px"
	 viewBox="100 -33.4 159.2 106.4" style="enable-background:new 100 -33.4 159.2 106.4;" xml:space="preserve">
<style type="text/css">
	.st0{clip-path:url(#SVGID_2_);}
	.st1{clip-path:url(#SVGID_4_);}
	.st2{clip-path:url(#SVGID_6_);}
	.st3{clip-path:url(#SVGID_8_);}
	.st4{fill:#FFFFFF;}
	.st5{fill:#1BA5DE;}
	.st6{fill:#19ACE3;}
	.st7{fill:#4DB9E9;}
	.st8{fill:#177EC0;}
</style>
<title>Asset 2</title>
<g>
	<defs>
		<rect id="SVGID_1_" x="142.4" y="-17.4" width="74.5" height="74.4"/>
	</defs>
	<clipPath id="SVGID_2_">
		<use xlink:href="#SVGID_1_"  style="overflow:visible;"/>
	</clipPath>
	<g class="st0">
		<g id="Layer_2">
			<defs>
				<path id="SVGID_3_" d="M142.4-17.4V57h74.1V32.4c0.3-0.5,0.5-1.1,0.4-1.6c0-0.6-0.1-1.2-0.4-1.6v-46.6H142.4"/>
			</defs>
			<clipPath id="SVGID_4_">
				<use xlink:href="#SVGID_3_"  style="overflow:visible;"/>
			</clipPath>
			<g id="Layer_1-2" class="st1">
				<g>
					<defs>
						<rect id="SVGID_5_" x="142.3" y="-17.3" width="74.5" height="74.4"/>
					</defs>
					<clipPath id="SVGID_6_">
						<use xlink:href="#SVGID_5_"  style="overflow:visible;"/>
					</clipPath>
					<g class="st2">
						<g>
							<defs>
								<rect id="SVGID_7_" x="142.3" y="-17.3" width="74.5" height="74.4"/>
							</defs>
							<clipPath id="SVGID_8_">
								<use xlink:href="#SVGID_7_"  style="overflow:visible;"/>
							</clipPath>
							<g class="st3">
								
									<image style="overflow:visible;enable-background:new    ;" width="256" height="256" xlink:href="686A096D80B6F60C.jpg"  transform="matrix(0.2941 0 0 0.293 142.3027 -17.315)">
								</image>
							</g>
						</g>
					</g>
				</g>
				<path class="st4" d="M142.4,20.3h3.6l0.8-1.9h1.8l0.8,1.9h7v-1.5l0.6,1.5h3.6l0.6-1.5v1.5h17.4v-3.2h0.3c0.2,0,0.3,0,0.3,0.4
					v2.8h9v-0.7c1,0.5,2.2,0.8,3.3,0.7h3.8l0.8-1.9h1.8l0.8,1.9h7.3v-1.8l1.1,1.8h5.8V8.1h-5.8v1.5l-0.8-1.4h-6v1.4l-0.7-1.4h-8
					c-1.2-0.1-2.4,0.2-3.5,0.7V8.1h-5.6v0.7c-0.7-0.5-1.5-0.8-2.4-0.7h-20.2l-1.4,3.1l-1.4-3.1H151v1.4l-0.7-1.4h-5.4l-2.5,5.8
					 M211.2,18.6h-3l-4-6.5v6.5H200l-0.8-2h-4.3l-0.8,2h-2.4c-1.1,0.1-2.2-0.3-3-1c-0.8-0.9-1.2-2.1-1.1-3.3
					c-0.1-1.2,0.3-2.5,1.1-3.4c0.9-0.8,2-1.1,3.2-1h2v1.9h-2c-0.6-0.1-1.2,0.1-1.6,0.5c-0.4,0.6-0.7,1.3-0.6,2
					c-0.1,0.7,0.2,1.4,0.6,2c0.4,0.3,0.9,0.5,1.5,0.4h0.9l2.9-6.8h3.1l3.5,8.2V9.8h3.2l3.7,6.1V9.8h2.1L211.2,18.6z M186.5,9.9v8.7
					h-2.1V9.8L186.5,9.9z M183.2,12.2c0,1-0.6,1.9-1.5,2.3c0.4,0.2,0.7,0.4,1,0.7c0.3,0.5,0.4,1,0.4,1.6v1.7h-2.1v-1.1
					c0.1-0.6,0-1.2-0.3-1.7c-0.3-0.3-0.8-0.4-1.5-0.4h-2.2v3.2h-2.1V9.8h4.8c0.9-0.1,1.7,0.1,2.5,0.4
					C182.8,10.6,183.2,11.4,183.2,12.2 M173.4,18.6h-7V9.8h7v1.8h-4.9v1.6h4.8V15h-4.8v1.7h4.9V18.6z M164.8,18.6h-2.2v-6.8l-3,6.8
					h-1.8l-3-6.8v6.8h-4.2l-0.8-1.9h-4.3l-0.8,1.9h-2.3l3.7-8.7h3.1l3.5,8.3V9.8h3.4l2.7,5.9l2.5-5.9h3.5L164.8,18.6z M198.5,14.8
					l-1.4-3.5l-1.4,3.5H198.5z M180.5,13.4c-0.3,0.1-0.7,0.2-1,0.2H177v-2h2.6c0.3,0,0.7,0,1,0.2c0.3,0.2,0.4,0.5,0.4,0.8
					C181,12.9,180.8,13.2,180.5,13.4 M149.1,14.8l-1.4-3.5l-1.4,3.5H149.1z"/>
				<path class="st4" d="M182.7,27.7c0,2.4-1.8,2.9-3.6,2.9h-2.6v2.9h-4l-2.6-2.9l-2.7,2.9H159v-8.8h8.4l2.6,2.8l2.6-2.8h6.6
					C180.9,24.8,182.7,25.3,182.7,27.7 M166.2,31.7h-5.1V30h4.6v-1.8h-4.6v-1.6h5.2l2.3,2.5L166.2,31.7z M174.4,32.7l-3.2-3.5
					l3.2-3.4V32.7z M179.2,28.8h-2.7v-2.1h2.7c0.8,0,1.3,0.3,1.3,1.1S180,28.9,179.2,28.8 M193.2,24.9h7v1.8h-4.9v1.6h4.8V30h-4.8
					v1.7h4.9v1.8h-7V24.9z M190.6,29.5c0.4,0.1,0.7,0.4,1,0.7c0.3,0.5,0.4,1,0.3,1.6v1.7h-2.1v-1.1c0-0.5,0-1.3-0.3-1.7
					s-0.8-0.4-1.5-0.4h-2.2v3.2h-2.1v-8.8h4.8c0.9-0.1,1.7,0.1,2.5,0.4c0.7,0.4,1.1,1.1,1.1,1.9C192.1,28.2,191.5,29.1,190.6,29.5
					 M189.3,28.4c-0.3,0.1-0.7,0.2-1,0.2h-2.5v-2h2.6c0.3,0,0.7,0,1,0.2c0.3,0.2,0.5,0.5,0.4,0.8C189.8,27.9,189.6,28.2,189.3,28.4
					 M208.2,28.9c0.5,0.5,0.7,1.2,0.6,1.8c0,1.9-1.2,2.8-3.3,2.8h-4.1v-1.8h4c0.3,0,0.6,0,0.9-0.2c0.2-0.1,0.2-0.4,0.2-0.6
					c0-0.2-0.1-0.4-0.2-0.6c-0.2-0.2-0.5-0.2-0.7-0.2c-2-0.1-4.4,0.1-4.4-2.7c0-1.3,0.8-2.6,3-2.6h4.2v1.9h-3.8
					c-0.3,0-0.6,0-0.8,0.2c-0.2,0.1-0.3,0.4-0.3,0.6c0,0.3,0.2,0.6,0.5,0.6c0.3,0.1,0.5,0.1,0.8,0.1h1.1
					C206.6,28.2,207.5,28.4,208.2,28.9 M216.4,32.4c-0.7,0.8-1.7,1.3-2.8,1.2h-4v-1.9h4c0.3,0,0.6,0,0.8-0.2
					c0.2-0.1,0.3-0.4,0.2-0.6c0-0.2-0.1-0.4-0.2-0.6c-0.2-0.2-0.5-0.2-0.7-0.2c-2-0.1-4.4,0.1-4.4-2.7c0-1.3,0.8-2.6,3-2.6h4.1v-1.7
					h-3.9c-0.9,0-1.8,0.2-2.6,0.7v-0.7h-5.7c-0.9,0-1.8,0.2-2.5,0.7v-0.7h-10.2v0.7c-0.9-0.5-1.8-0.7-2.8-0.7h-6.7v0.7
					c-0.9-0.6-1.9-0.8-2.9-0.7h-7.5L170,25l-1.6-1.9h-11.2v12.2h11l1.8-1.9l1.7,1.9h6.8v-2.9h0.7c1,0.1,2-0.1,2.9-0.4v3.3h5.6v-3.2
					h0.3c0.4,0,0.4,0,0.4,0.4v2.8h17c1,0,2-0.2,2.8-0.8v0.8h5.4c1,0,2.1-0.2,3-0.6L216.4,32.4z M216.4,26.7h-3.8
					c-0.3,0-0.6,0-0.8,0.2c-0.2,0.1-0.3,0.4-0.3,0.6c0,0.3,0.2,0.6,0.5,0.6c0.3,0.1,0.5,0.1,0.8,0.1h1.1c0.9-0.1,1.7,0.2,2.4,0.7
					c0.1,0.1,0.1,0.1,0.2,0.2L216.4,26.7z"/>
				<path class="st5" d="M183.2,12.2c0,1-0.6,1.9-1.5,2.3c0.4,0.2,0.7,0.4,1,0.7c0.3,0.5,0.4,1,0.4,1.6v1.7h-2.1v-1.1
					c0.1-0.6,0-1.2-0.3-1.7c-0.3-0.3-0.8-0.4-1.5-0.4h-2.2v3.2h-2.1V9.8h4.8c0.9-0.1,1.7,0.1,2.5,0.4
					C182.8,10.6,183.2,11.4,183.2,12.2"/>
				<polyline class="st6" points="173.4,18.6 166.4,18.6 166.4,9.8 173.4,9.8 173.4,11.7 168.5,11.7 168.5,13.2 173.2,13.2 
					173.2,15 168.5,15 168.5,16.7 173.4,16.7 				"/>
				<polyline class="st7" points="164.9,18.6 162.7,18.6 162.7,11.7 159.7,18.6 157.9,18.6 154.8,11.7 154.8,18.6 150.6,18.6 
					149.8,16.6 145.5,16.6 144.7,18.6 142.4,18.6 146.1,9.8 149.2,9.8 152.8,18.1 152.8,9.8 156.2,9.8 158.9,15.8 161.4,9.8 
					164.9,9.8 				"/>
				<path class="st4" d="M180.4,13.4c-0.3,0.1-0.7,0.2-1,0.2h-2.5v-1.9h2.6c0.3,0,0.7,0,1,0.2c0.3,0.1,0.5,0.4,0.4,0.8
					C180.9,12.9,180.8,13.2,180.4,13.4"/>
				<polyline class="st4" points="149,14.8 147.6,11.3 146.2,14.8 				"/>
				<path class="st8" d="M134,51.3c-1.3,0-2.3,1-2.3,2.3c0,1.3,1,2.3,2.3,2.3s2.3-1,2.3-2.3c0,0,0,0,0,0
					C136.4,52.4,135.3,51.4,134,51.3C134.1,51.3,134,51.3,134,51.3 M136.1,55.7c-0.5,0.6-1.3,0.9-2.1,0.8c-1.6,0-2.9-1.3-2.9-2.9
					c0-1.6,1.3-2.9,2.9-2.9c0.8,0,1.5,0.3,2.1,0.9c0.6,0.5,0.9,1.3,0.9,2.1C136.9,54.4,136.6,55.2,136.1,55.7"/>
				<path class="st8" d="M134.2,53.5h-0.8v-0.8h0.8c0.2,0,0.4,0,0.4,0.4S134.5,53.5,134.2,53.5 M135.3,54.9
					c-0.1-0.1-0.1-0.1-0.1-0.2v-0.5c0-0.3-0.1-0.4-0.2-0.5c0.2-0.1,0.3-0.4,0.3-0.6c0-0.7-0.5-0.8-1-0.8H133V55h0.5v-1.2h0.8
					c0.4,0,0.4,0.2,0.4,0.4c0,0.3,0,0.5,0.1,0.8h0.6L135.3,54.9z"/>
			</g>
		</g>
	</g>
</g>
</svg>
